<?xml version="1.0" encoding="UTF-8"?>
<svg id="a" data-name="Layer_1" xmlns="http://www.w3.org/2000/svg" xmlns:xlink="http://www.w3.org/1999/xlink" viewBox="0 0 1176.29 1252.35">
  <defs>
    <style>
      .f {
        fill: #006837;
      }

      .f, .g, .h, .i, .j, .k, .l, .m, .n, .o, .p, .q, .r, .s, .t, .u, .v, .w, .x, .y {
        stroke: #000;
        stroke-miterlimit: 10;
      }

      .g {
        fill: #603813;
      }

      .h, .p {
        fill: none;
      }

      .i {
        fill: #754c24;
      }

      .z, .k {
        fill: #fff;
      }

      .j {
        fill: #e0e9ed;
      }

      .l {
        fill: #42210b;
      }

      .m {
        fill: #fbb03b;
      }

      .o {
        fill: #c7b299;
      }

      .p {
        stroke-width: 2px;
      }

      .q {
        fill: #999;
      }

      .r {
        fill: url(#e);
      }

      .s {
        fill: url(#d);
      }

      .aa, .t {
        fill: #1d1d1b;
      }

      .ab {
        fill: url(#b);
      }

      .u {
        fill: #c1272d;
      }

      .v {
        fill: #666;
      }

      .w {
        fill: #b1c0c9;
      }

      .x {
        fill: #a67c52;
      }

      .y {
        fill: url(#c);
      }
    </style>
    <linearGradient id="b" x1="1004.7" y1="658.48" x2="22.33" y2="1231.71" gradientUnits="userSpaceOnUse">
      <stop offset="0" stop-color="#a67c52"/>
      <stop offset=".12" stop-color="#9c754d"/>
      <stop offset=".31" stop-color="#836240"/>
      <stop offset=".56" stop-color="#5a432c"/>
      <stop offset=".84" stop-color="#211910"/>
      <stop offset="1" stop-color="#000"/>
    </linearGradient>
    <linearGradient id="c" x1="564.47" y1="305.62" x2="28.39" y2="627.24" gradientUnits="userSpaceOnUse">
      <stop offset="0" stop-color="#c7b299"/>
      <stop offset=".18" stop-color="#b7a38d"/>
      <stop offset=".54" stop-color="#8f7e6f"/>
      <stop offset="1" stop-color="#534741"/>
    </linearGradient>
    <linearGradient id="d" data-name="Blue Sky" x1="116.5" y1="739.64" x2="241.29" y2="739.64" gradientTransform="translate(-.02 .02)" gradientUnits="userSpaceOnUse">
      <stop offset="0" stop-color="#3ddeed"/>
      <stop offset="1" stop-color="#3ddeed" stop-opacity="0"/>
    </linearGradient>
    <linearGradient id="e" data-name="Blue Sky" x1="115.08" y1="739.65" x2="242.71" y2="739.65" xlink:href="#d"/>
  </defs>
  <g>
    <g>
      <polygon class="z" points="588.14 1.28 1.11 340.21 1.11 912.14 588.14 1251.06 1175.18 912.14 1175.18 340.21 588.14 1.28"/>
      <path class="aa" d="M588.14,1252.35l-.56-.32L0,912.78V339.57l.56-.32L588.14,0l.56.32,587.59,339.24v573.22l-.56.32-587.59,339.24ZM2.22,911.5l585.92,338.28,585.92-338.28V340.85L588.14,2.57,2.22,340.85v570.65Z"/>
    </g>
    <g>
      <g>
        <polygon class="ab" points="588.14 1229.88 19.46 901.55 588.14 573.22 1156.83 901.55 588.14 1229.88"/>
        <path class="aa" d="M588.14,1231.16l-.56-.32L17.23,901.55l1.67-.96,569.24-328.65.56.32,570.36,329.3-1.67.96-569.25,328.65ZM21.68,901.55l566.46,327.05,566.47-327.05-566.47-327.05L21.68,901.55Z"/>
      </g>
      <g>
        <polygon class="y" points="588.14 573.22 588.14 22.47 19.46 350.8 19.46 901.55 588.14 573.22"/>
        <path class="t" d="M18.35,903.48V350.16l.56-.32L589.26,20.54v553.32l-.56.32L18.35,903.48ZM20.57,351.44v548.18l566.46-327.05V24.39L20.57,351.44Z"/>
      </g>
      <g>
        <polygon class="o" points="588.14 22.47 1156.83 350.8 1156.83 901.55 588.14 573.22 588.14 22.47"/>
        <path class="o" d="M1157.94,903.48l-1.67-.96-569.25-328.65V20.54l1.67.96,569.25,328.65v553.32ZM589.26,572.57l566.47,327.05V351.44L589.26,24.39v548.18Z"/>
      </g>
    </g>
    <polygon class="aa" points="19.46 350.8 1.11 340.21 588.14 1.28 1175.18 340.21 1156.83 350.8 588.14 22.47 19.46 350.8"/>
    <polygon class="aa" points="1.11 340.21 1.11 912.14 588.14 1251.06 588.14 1229.88 19.46 901.55 19.46 350.8 1.11 340.21"/>
    <polygon class="aa" points="1175.18 340.21 1175.18 912.14 588.14 1251.06 588.14 1229.88 1156.83 901.55 1156.83 350.8 1175.18 340.21"/>
    <g>
      <polygon class="l" points="833.35 566.57 833.35 292.54 638.59 180.09 638.59 454.12 833.35 566.57"/>
      <path class="l" d="M637.19,454.93V177.67l197.56,114.06v277.26l-197.56-114.06ZM639.98,182.51v270.81l191.98,110.84v-270.81l-191.98-110.84Z"/>
    </g>
    <polygon class="j" points="821.07 545.3 821.07 299.63 650.87 201.37 650.87 447.03 821.07 545.3"/>
    <path class="n" d="M649.47,447.83v-248.89l172.99,99.88v248.89l-172.99-99.88ZM652.26,203.78v242.44l167.41,96.65v-242.44l-167.41-96.66Z"/>
    <g>
      <polygon class="x" points="650.87 447.03 672.14 434.75 821.07 520.73 821.07 545.3 650.87 447.03"/>
      <path class="x" d="M648.08,447.03l24.06-13.89,150.32,86.79v27.79l-174.39-100.69ZM672.14,436.36l-18.48,10.67,166.01,95.85v-21.34l-147.53-85.18Z"/>
    </g>
    <g>
      <polygon class="i" points="672.14 434.75 672.14 213.65 650.87 201.37 650.87 447.03 672.14 434.75"/>
      <path class="i" d="M649.47,198.95l24.06,13.9v222.71l-24.06,13.9v-250.5ZM670.75,214.45l-18.48-10.67v240.83l18.48-10.67v-219.49Z"/>
    </g>
    <g>
      <polygon class="l" points="735.97 471.6 735.97 250.5 752.12 259.82 752.09 480.9 735.97 471.6"/>
      <path class="l" d="M734.57,472.4v-224.33l18.94,10.94-.03,224.3-18.91-10.92ZM737.37,252.91v217.88l13.33,7.7.03-217.86-13.36-7.71Z"/>
    </g>
    <g>
      <polygon class="l" points="1108.33 731.41 1108.33 453.06 910.49 338.84 910.49 617.19 1108.33 731.41"/>
      <path class="l" d="M909.08,618.01v-281.63l200.67,115.86v281.63l-200.67-115.86ZM911.91,341.29v275.08l195,112.59v-275.08l-195-112.58Z"/>
    </g>
    <g>
      <polygon class="j" points="1095.86 709.8 1095.86 460.26 922.97 360.45 922.97 609.99 1095.86 709.8"/>
      <path class="n" d="M921.55,610.8v-252.81l175.72,101.45v252.82l-175.72-101.46ZM924.39,362.9v246.27l170.05,98.18v-246.26l-170.05-98.18Z"/>
    </g>
    <g>
      <polygon class="x" points="922.97 609.99 944.58 597.51 1095.86 684.85 1095.86 709.8 922.97 609.99"/>
      <path class="x" d="M920.14,609.99l24.44-14.11,152.69,88.16v28.23l-177.14-102.27ZM944.58,599.14l-18.77,10.84,168.63,97.36v-21.68l-149.86-86.52Z"/>
    </g>
    <g>
      <polygon class="i" points="944.58 597.51 944.58 372.93 922.97 360.45 922.97 609.99 944.58 597.51"/>
      <path class="i" d="M921.55,357.99l24.44,14.12v226.22l-24.44,14.12v-254.45ZM943.16,373.74l-18.77-10.84v244.63l18.77-10.84v-222.95Z"/>
    </g>
    <g>
      <polygon class="l" points="1009.41 634.94 1009.41 410.36 1025.82 419.83 1025.79 644.39 1009.41 634.94"/>
      <path class="l" d="M1008,635.76v-227.86l19.24,11.11-.03,227.84-19.21-11.09ZM1010.83,412.81v221.31l13.54,7.82.03-221.29-13.57-7.84Z"/>
    </g>
    <line class="p" x1="54.42" y1="882.65" x2="623.1" y2="1209.7"/>
    <line class="p" x1="92.82" y1="858.39" x2="661.51" y2="1185.44"/>
    <line class="p" x1="135.42" y1="836.27" x2="704.1" y2="1163.32"/>
    <line class="p" x1="175.36" y1="813.78" x2="744.05" y2="1140.83"/>
    <line class="p" x1="213" y1="790.02" x2="781.68" y2="1117.07"/>
    <line class="p" x1="251.41" y1="765.76" x2="820.09" y2="1092.81"/>
    <line class="p" x1="294" y1="743.65" x2="862.68" y2="1070.7"/>
    <line class="p" x1="333.95" y1="721.15" x2="902.63" y2="1048.2"/>
    <line class="p" x1="379.53" y1="694.9" x2="948.21" y2="1021.95"/>
    <line class="p" x1="417.94" y1="670.64" x2="986.62" y2="997.69"/>
    <line class="p" x1="460.53" y1="648.52" x2="1029.21" y2="975.57"/>
    <line class="p" x1="500.48" y1="626.03" x2="1069.16" y2="953.08"/>
    <line class="p" x1="537.41" y1="602.24" x2="1106.1" y2="929.29"/>
    <line class="h" x1="577.36" y1="579.74" x2="1146.04" y2="906.79"/>
    <polyline class="h" points="183.75 997.69 154.53 959.6 183.75 975.57 183.75 959.6"/>
    <polyline class="h" points="303.8 1026.07 333.95 1032.46 303.8 1006.74 333.95 1019.6 333.95 999.8"/>
    <line class="h" x1="587.03" y1="597.51" x2="920.14" y2="790.02"/>
    <line class="h" x1="595.96" y1="626.03" x2="713.05" y2="693.77"/>
    <line class="h" x1="753.58" y1="712.26" x2="848.81" y2="765.76"/>
    <line class="h" x1="902.63" y1="795.64" x2="943.16" y2="819.6"/>
    <line class="h" x1="948.21" y1="807.62" x2="1128.81" y2="911.82"/>
    <polyline class="h" points="557.81 626.17 557.81 644.39 587.03 641.94 618.29 666.3 713.05 721.15"/>
    <line class="h" x1="649.47" y1="694.9" x2="804.53" y2="789.56"/>
    <line class="h" x1="735.97" y1="728.96" x2="811.67" y2="776.74"/>
    <line class="h" x1="820.09" y1="790.02" x2="1038.51" y2="918.17"/>
    <line class="h" x1="909.08" y1="825.32" x2="975.96" y2="866.65"/>
    <line class="h" x1="1029.21" y1="899.62" x2="1094.44" y2="936.29"/>
    <polyline class="h" points="518.11 965.49 417.94 884.68 459.7 899.62 441.73 875.22"/>
    <line class="h" x1="117.39" y1="859.72" x2="377.16" y2="1008.17"/>
    <line class="h" x1="145.96" y1="859.72" x2="535.75" y2="1092.81"/>
    <line class="h" x1="557.81" y1="1092.81" x2="618.29" y2="1130.31"/>
    <line class="h" x1="294.63" y1="936.29" x2="425.96" y2="1016.13"/>
    <line class="h" x1="571.67" y1="1117.07" x2="673.54" y2="1179.3"/>
    <line class="h" x1="175.36" y1="825.32" x2="483.1" y2="999.8"/>
    <line class="h" x1="190.24" y1="854.1" x2="310.24" y2="920.35"/>
    <line class="h" x1="347.39" y1="936.29" x2="557.81" y2="1062.55"/>
    <line class="h" x1="518.11" y1="1021.95" x2="702.28" y2="1130.31"/>
    <line class="h" x1="587.03" y1="1070.7" x2="635.43" y2="1103.93"/>
    <line class="h" x1="661.51" y1="1130.31" x2="704.1" y2="1155.13"/>
    <line class="h" x1="234.53" y1="819.6" x2="452.6" y2="945.32"/>
    <line class="h" x1="391.67" y1="929.29" x2="661.51" y2="1087.31"/>
    <line class="h" x1="477.67" y1="965.49" x2="578.34" y2="1021.95"/>
    <line class="h" x1="611.23" y1="1041.03" x2="744.05" y2="1111.56"/>
    <line class="h" x1="251.41" y1="789.56" x2="417.94" y2="884.68"/>
    <line class="h" x1="310.24" y1="812.05" x2="401.67" y2="866.65"/>
    <line class="h" x1="285.96" y1="825.32" x2="334.67" y2="854.1"/>
    <line class="h" x1="500.48" y1="920.35" x2="693.1" y2="1032.46"/>
    <line class="h" x1="557.81" y1="965.49" x2="784.82" y2="1092.81"/>
    <line class="h" x1="661.51" y1="1032.46" x2="752.12" y2="1087.31"/>
    <line class="h" x1="294.63" y1="752.85" x2="587.03" y2="920.35"/>
    <line class="h" x1="294.63" y1="776.74" x2="794.11" y2="1064.77"/>
    <line class="h" x1="333.95" y1="789.56" x2="440.83" y2="845.98"/>
    <line class="h" x1="497.34" y1="882.46" x2="753.58" y2="1021.95"/>
    <line class="h" x1="303.8" y1="737.38" x2="526.59" y2="866.65"/>
    <line class="h" x1="329.23" y1="739.01" x2="673.54" y2="945.32"/>
    <line class="h" x1="497.34" y1="825.32" x2="744.87" y2="965.49"/>
    <polyline class="h" points="653.66 920.76 750.73 978.65 763.1 997.69 794.11 1016.13 764.53 978.65 804.53 1011.03 861.31 1041.03"/>
    <polyline class="h" points="353.8 709.8 417.94 742.23 438.81 759.6 438.81 743.65 500.48 790.02 537.41 795.64 933.6 1029.15"/>
    <line class="h" x1="528.01" y1="813.78" x2="671.32" y2="901.55"/>
    <line class="h" x1="639.98" y1="869.48" x2="811.67" y2="975.57"/>
    <line class="h" x1="417.94" y1="682.04" x2="765.96" y2="882.46"/>
    <line class="h" x1="391.67" y1="686.65" x2="611.23" y2="813.78"/>
    <line class="h" x1="425.96" y1="694.9" x2="848.81" y2="945.32"/>
    <line class="h" x1="784.82" y1="895.4" x2="972.15" y2="1008.17"/>
    <line class="h" x1="821.75" y1="936.29" x2="960.6" y2="1016.13"/>
    <line class="h" x1="451.75" y1="653.25" x2="625.46" y2="752.85"/>
    <line class="h" x1="452.6" y1="673.66" x2="784.82" y2="859.72"/>
    <line class="h" x1="650.87" y1="766.69" x2="1017.62" y2="981.93"/>
    <line class="h" x1="781.68" y1="866.65" x2="999.41" y2="993.72"/>
    <line class="h" x1="811.67" y1="869.48" x2="948.21" y2="953.55"/>
    <line class="h" x1="488.81" y1="632.46" x2="663.87" y2="737.38"/>
    <line class="h" x1="477.67" y1="644.39" x2="757.49" y2="802.02"/>
    <line class="h" x1="702.28" y1="752.85" x2="794.11" y2="807.62"/>
    <line class="h" x1="765.96" y1="812.05" x2="1038.51" y2="965.49"/>
    <polyline class="h" points="831.96 834.16 911.91 884.68 910.49 869.48 944.58 903.48 975.96 912.56 1054.06 959.6"/>
    <line class="h" x1="82.13" y1="866.65" x2="280.24" y2="978.65"/>
    <line class="h" x1="75.96" y1="882.46" x2="303.8" y2="1006.74"/>
    <line class="h" x1="353.8" y1="1021.91" x2="468.02" y2="1092.81"/>
    <line class="h" x1="360.29" y1="1041.03" x2="483.1" y2="1117.07"/>
    <polyline class="h" points="483.1 1092.81 643.7 1196.52 497.34 1117.07"/>
    <line class="h" x1="43.82" y1="888.77" x2="145.96" y2="945.32"/>
    <line class="h" x1="27.88" y1="895.4" x2="145.96" y2="965.49"/>
    <line class="h" x1="201.67" y1="978.65" x2="610.19" y2="1215.87"/>
    <line class="h" x1="213" y1="997.69" x2="340.85" y2="1070.7"/>
    <line class="h" x1="377.16" y1="1092.81" x2="421.7" y2="1123.89"/>
    <line class="h" x1="452.6" y1="1148.18" x2="595.96" y2="1224.09"/>
    <g>
      <g>
        <path class="l" d="M714.33,752.37v408.72l10.01-5.78,1.28-.74,154.75-89.33,1.31-.77.46-.26.8-.46.49-.28,10.01-5.78v-408.72l-179.11,103.39ZM726.91,759.64l134.4-77.6v370.7l-134.4,77.57v-370.68Z"/>
        <path class="l" d="M713.05,751.63v411.7l11.29-6.52,157.35-90.84,1.74-1,.8-.46,10.5-6.06v-411.7l-181.68,104.88ZM892.16,1056.95l-8.73,5.03-1.28.74-.49.28-.8.46-.46.28-1.31.74-152.19,87.86-1.28.74-1.28.74-8.73,5.03v-405.77l176.55-101.93v405.77Z"/>
      </g>
      <g>
        <path class="l" d="M862.59,679.83l-1.28.74-135.68,78.32v396.24l155.24-89.63,1.28-.74v-396.22l-19.56,11.29ZM726.91,759.64l134.4-77.6v370.7l-134.4,77.57v-370.68Z"/>
        <path class="l" d="M861.31,679.09l-136.97,79.06v399.2l157.81-91.1h.02l1.26-.74v-399.2l-22.12,12.78ZM726.91,759.64l134.4-77.6,1.28-.74,1.28-.72,16.99-9.83v393.29l-1.28.74-152.67,88.12v-393.27Z"/>
      </g>
      <g>
        <polygon class="l" points="882.15 1064.77 862.58 1053.47 725.63 1132.54 725.63 1155.13 882.15 1064.77"/>
        <path class="l" d="M884.23,1064.5l-.8-.46-.49-.28-.8-.46-.49-.28-.8-.46-16.99-9.81-1.28-.74-1.28.74-134.4,77.57-2.57,1.49v25.54l157.81-91.1h.02l1.26-.72,1.28-.74-.49-.28ZM726.91,1133.29l135.68-78.34,16.5,9.55.49.28-152.67,88.12v-19.61Z"/>
      </g>
      <g>
        <polygon class="l" points="862.58 1053.47 862.58 679.82 882.15 668.53 882.15 1064.77 862.58 1053.47"/>
        <path class="l" d="M861.31,679.09v375.12l1.28.74,16.5,9.55.49.28.8.46.49.26.82.46.46.28h.02l1.26.74v-400.68l-22.12,12.78ZM863.88,680.58l16.99-9.83v391.81l-16.99-9.81v-372.17Z"/>
      </g>
    </g>
    <polyline class="h" points="101.67 462.01 117.39 506.74 125.96 444.61 154.53 462.01"/>
    <polyline class="h" points="377.16 248.08 401.67 289.6 417.94 259.6 440.83 275.32"/>
    <polyline class="h" points="294.63 585.32 377.16 527.37 329.23 527.37 360.29 506.74"/>
    <line class="h" x1="451.75" y1="391.03" x2="468.02" y2="410.36"/>
    <line class="h" x1="294.63" y1="407.9" x2="294.63" y2="436.36"/>
    <line class="h" x1="101.67" y1="703.05" x2="94.89" y2="752.85"/>
    <polyline class="h" points="714.33 155.32 734.57 180.09 737.37 155.32 753.52 167.7"/>
    <polyline class="h" points="733.93 595.87 744.05 568.99 753.58 602.24 773.82 585.61"/>
    <line class="h" x1="872.49" y1="449.45" x2="872.49" y2="478.49"/>
    <line class="h" x1="1094.44" y1="422.13" x2="1109.75" y2="400.69"/>
    <line class="h" x1="1061.83" y1="795.64" x2="1102.09" y2="795.64"/>
    <polyline class="h" points="1008 723.2 1061.83 742.23 1038.51 752.85"/>
  </g>
  <g>
    <g>
      <path class="f" d="M635.15,178.98v182.78l4.49,5.3c1.6,1.89,3.96,2.99,6.44,2.99h1.29c5.36,0,10.17-3.29,12.1-8.29h0v-28.23l5.13,41.11,6.9,8.45,3.43,1.73c3.33,1.68,7.18-1.09,6.64-4.79l-1.32-8.95,7.3-16.7v-22.96l5.74-18.78,2.09-21.75v-32.04c0-2.91,1.42-5.65,3.82-7.31l26.67-18.59-90.72-53.99Z"/>
      <path class="f" d="M754.3,249.39v98.49c0,7.4,2.48,14.58,7.05,20.41l4.99,6.36-4.03,11.86c-1.3,3.82-1.56,7.92-.76,11.88l.98,4.8c1.11,5.45,4.25,10.27,8.78,13.49l.47.33,4.47-5.34,3.13-9.66,4.17,12.12,1.76,10.37c.56,3.28,2.08,6.32,4.37,8.73l.94.99c3.32,3.49,8.38,4.7,12.92,3.08l3.5-1.25,2.61-14.88,4.24,38.16c.64,5.75,2.86,11.21,6.41,15.78l5.52,7.09,6.89,8.71v-197.88l-78.4-43.66Z"/>
      <polyline class="f" points="659.46 333.53 663.55 229.7 677.58 205.09"/>
      <line class="f" x1="648.42" y1="203.61" x2="646.03" y2="325.5"/>
      <line class="f" x1="680.5" y1="266.74" x2="675.03" y2="341.52"/>
      <line class="f" x1="766.33" y1="374.64" x2="771.78" y2="266.74"/>
      <line class="f" x1="779.38" y1="402" x2="785.64" y2="320.69"/>
      <line class="f" x1="809.64" y1="421.18" x2="809.64" y2="306.4"/>
    </g>
    <g>
      <path class="f" d="M910.63,338.84v182.78l4.49,5.3c1.6,1.89,3.96,2.99,6.44,2.99h1.29c5.36,0,10.17-3.29,12.1-8.29h0v-28.23l5.13,41.11,6.9,8.45,3.43,1.73c3.33,1.68,7.18-1.09,6.64-4.79l-1.32-8.95,7.3-16.7v-22.96l5.74-18.78,2.09-21.75v-32.04c0-2.91,1.42-5.65,3.82-7.31l26.67-18.59-90.72-53.99Z"/>
      <path class="f" d="M1029.79,409.24v98.49c0,7.4,2.48,14.58,7.05,20.41l4.99,6.36-4.03,11.86c-1.3,3.82-1.56,7.92-.76,11.88l.98,4.8c1.11,5.45,4.25,10.27,8.78,13.49l.47.33,4.47-5.34,3.13-9.66,4.17,12.12,1.76,10.37c.56,3.28,2.08,6.32,4.37,8.73l.94.99c3.32,3.49,8.38,4.7,12.92,3.08l3.5-1.25,2.61-14.88,4.24,38.16c.64,5.75,2.86,11.21,6.41,15.78l5.52,7.09,6.89,8.71v-197.88l-78.4-43.66Z"/>
      <polyline class="f" points="934.95 493.38 939.04 389.56 953.06 364.95"/>
      <line class="f" x1="923.91" y1="363.47" x2="921.52" y2="485.36"/>
      <line class="f" x1="955.99" y1="426.6" x2="950.52" y2="501.37"/>
      <line class="f" x1="1041.82" y1="534.5" x2="1047.26" y2="426.6"/>
      <line class="f" x1="1054.87" y1="561.86" x2="1061.13" y2="480.55"/>
      <line class="f" x1="1085.13" y1="581.03" x2="1085.13" y2="466.25"/>
    </g>
    <polygon class="w" points="948.21 597.51 960.38 574.5 968.21 588.91 986.62 568.99 991.16 592.56 1001.35 595.87 1007.95 632.46 948.21 597.51"/>
    <polygon class="w" points="754.3 422.13 782.51 426.6 773.82 447.03 801.2 456.91 784.82 475.7 785.64 498.66 753.48 480.1 754.3 422.13"/>
  </g>
  <g>
    <g>
      <g>
        <path class="l" d="M509.4,681.24h0c-2.83-.42-5.27-2.54-6.73-6.36l-17.33-45.29c-3.19-8.34-.51-21.58,5.98-29.59l27.4-33.77c3.54-4.36,7.47-6.26,10.84-5.74h0s30.12,4.2,30.12,4.2l-20.32,120.71-29.98-4.17Z"/>
        <path class="l" d="M509.31,681.92l-.74-.11v-.04c-2.85-.71-5.15-3.04-6.53-6.64l-17.33-45.29c-3.26-8.53-.53-22.11,6.09-30.27l27.4-33.77c3.33-4.11,7.31-6.31,10.84-6.06v-.02s31.46,4.39,31.46,4.39l-20.44,121.41-.11.66-30.64-4.26ZM530.11,561.26h0s-.63-.08-.63-.08c-3.2-.49-6.99,1.54-10.2,5.49l-27.4,33.77c-6.35,7.82-8.98,20.79-5.88,28.9l17.33,45.29c1.31,3.42,3.5,5.52,6.18,5.91l29.3,4.08,20.09-119.35-28.79-4.02Z"/>
      </g>
      <g>
        <path class="g" d="M583.98,616.37l-17.33-45.29c-3.19-8.34-11.04-8.61-17.54-.6l-27.4,33.77c-6.5,8-9.18,21.25-5.99,29.59l17.33,45.29c3.19,8.34,11.04,8.61,17.54.6l27.4-33.77c6.49-8,9.17-21.25,5.98-29.59Z"/>
        <path class="g" d="M532.41,679.37l-17.33-45.29c-3.26-8.53-.53-22.11,6.1-30.27l27.4-33.77c2.14-2.64,4.54-4.52,6.93-5.43,5.06-1.94,9.58.45,11.79,6.23l17.33,45.29c3.26,8.53.53,22.11-6.09,30.27l-27.4,33.77c-2.14,2.64-4.54,4.52-6.93,5.43-5.06,1.94-9.58-.45-11.79-6.22ZM549.65,570.92l-27.4,33.77c-6.35,7.82-8.98,20.79-5.88,28.9l17.33,45.29c1.93,5.05,5.67,7.08,10,5.43,2.17-.83,4.36-2.56,6.35-5.01l27.4-33.77c6.35-7.82,8.98-20.79,5.87-28.9l-17.33-45.29c-1.93-5.06-5.67-7.08-10-5.43-2.17.83-4.36,2.56-6.35,5.01Z"/>
      </g>
      <g>
        <g>
          <path class="l" d="M603.3,667.34l-19.25,7.37,10.17,26.57h0c.54,1.42,2.03,2.48,4.32,2.85,4.59.73,10.68-1.6,13.61-5.21,1.47-1.8,1.86-3.58,1.32-5.01h0l-10.17-26.57Z"/>
          <path class="l" d="M598.43,704.81c-2.47-.39-4.2-1.56-4.86-3.29l-10.41-27.22,20.54-7.86,10.41,27.22c.66,1.73.15,3.75-1.42,5.69-1.49,1.84-3.79,3.42-6.47,4.44s-5.45,1.39-7.78,1.01ZM584.94,675.11l9.92,25.92c.48,1.24,1.82,2.1,3.79,2.41,2.1.34,4.61,0,7.07-.94s4.55-2.37,5.89-4.02c1.26-1.54,1.68-3.08,1.21-4.32l-9.92-25.92-17.96,6.87Z"/>
        </g>
        <g>
          <path class="l" d="M601.98,672.35c-2.93,3.61-9.02,5.94-13.61,5.21-4.59-.73-5.94-4.25-3.01-7.86,2.93-3.61,9.02-5.94,13.61-5.21,4.59.73,5.93,4.25,3.01,7.86Z"/>
          <path class="l" d="M588.26,678.24c-2.47-.39-4.2-1.56-4.86-3.29-.66-1.72-.15-3.75,1.42-5.69,1.49-1.84,3.79-3.42,6.47-4.44s5.45-1.39,7.78-1.01c2.47.4,4.2,1.56,4.86,3.29.66,1.72.15,3.75-1.42,5.69-1.49,1.84-3.79,3.42-6.47,4.44s-5.45,1.39-7.78,1.01ZM585.9,670.14c-1.25,1.55-1.68,3.08-1.21,4.33s1.82,2.1,3.79,2.41c2.1.34,4.61,0,7.07-.94s4.55-2.37,5.89-4.02c1.25-1.54,1.68-3.08,1.21-4.32-.47-1.24-1.82-2.1-3.78-2.42-2.1-.34-4.61,0-7.07.94-2.46.94-4.55,2.37-5.89,4.02Z"/>
        </g>
      </g>
      <g>
        <g>
          <path class="l" d="M645.1,634.76h0c1.06,2.67.44,5.83-2.14,9l-30.56,37.65c-5.63,6.93-18.44,11.23-28.62,9.61l-42.95-6.85c-5.54-.88-9.16-3.34-10.4-6.52h0s-11.42-28.19-11.42-28.19l114.7-42.76,11.37,28.05Z"/>
          <path class="l" d="M583.68,691.71l-42.95-6.85c-5.23-.83-9.07-3.12-10.65-6.32l-11.96-29.47,116-43.24,11.63,28.67.26.66h-.03c.84,2.85-.03,6.03-2.47,9.04l-30.56,37.65c-2.52,3.11-6.59,5.85-11.45,7.71h0c-5.85,2.24-12.35,3.02-17.81,2.15ZM633.34,607.6l-113.4,42.28,10.89,26.9.26.64c1.19,3.06,4.79,5.28,9.86,6.09l42.95,6.85c5.24.84,11.47.08,17.1-2.08,4.64-1.77,8.49-4.36,10.87-7.29l30.56-37.65c2.31-2.84,3.03-5.79,2.03-8.31l-.12-.32-10.99-27.1Z"/>
        </g>
        <g>
          <path class="l" d="M551.64,602.61l-30.56,37.65c-5.62,6.93-1.93,13.87,8.25,15.49l42.95,6.85c10.18,1.62,22.99-2.68,28.62-9.61l30.56-37.65c5.63-6.93,1.93-13.87-8.24-15.49l-42.95-6.85c-10.18-1.62-22.99,2.68-28.62,9.61Z"/>
          <path class="l" d="M572.16,663.28l-42.95-6.85c-5.6-.89-9.6-3.44-10.95-7-1.14-2.98-.33-6.39,2.28-9.61l30.56-37.65c2.52-3.11,6.59-5.85,11.45-7.71,5.85-2.24,12.35-3.02,17.81-2.15l42.95,6.85c5.6.89,9.59,3.44,10.95,7,1.14,2.98.33,6.39-2.28,9.61l-30.56,37.65c-2.52,3.11-6.59,5.85-11.45,7.71-5.85,2.24-12.35,3.02-17.81,2.15ZM552.17,603.04l-30.56,37.65c-2.29,2.82-3.02,5.75-2.06,8.25,1.18,3.08,4.78,5.31,9.88,6.12l42.95,6.85c5.23.83,11.47.08,17.1-2.08,4.63-1.77,8.49-4.36,10.87-7.29l30.56-37.65c2.29-2.82,3.02-5.75,2.06-8.25-1.18-3.08-4.78-5.31-9.88-6.12l-42.95-6.85c-5.24-.83-11.47-.08-17.1,2.08-4.63,1.77-8.49,4.36-10.87,7.29Z"/>
        </g>
      </g>
      <g>
        <path class="i" d="M655.83,573.7h0c1.83-2.21,2.23-5.41.77-9.23l-17.33-45.29c-3.19-8.34-14.03-16.41-24.21-18.04l-42.95-6.85c-5.54-.88-9.74.33-11.91,2.96h0s-19.62,23.24-19.62,23.24l95.71,76.31,19.53-23.12Z"/>
        <path class="i" d="M540.15,521.04l-.56-.44,20.08-23.78.47-.55.02.02c2.48-2.5,6.88-3.49,12.06-2.67l42.95,6.85c10.38,1.66,21.48,9.94,24.75,18.47l17.33,45.29c1.39,3.64,1.21,6.94-.48,9.38l.03.03-20.4,24.14-96.24-76.73ZM655.29,573.25c1.73-2.08,1.97-5.11.66-8.53l-17.33-45.29c-3.11-8.12-13.73-16.01-23.67-17.6l-42.95-6.85c-5.03-.8-9.2.21-11.26,2.72l-.47.56h0s-18.7,22.14-18.7,22.14l94.63,75.45,18.67-22.09.42-.51Z"/>
      </g>
      <g>
        <path class="l" d="M557,575.19l-17.33-45.29c-3.19-8.34,2.48-13.78,12.65-12.16l42.95,6.85c10.18,1.62,21.02,9.7,24.21,18.03l17.33,45.29c3.19,8.34-2.48,13.78-12.65,12.16l-42.95-6.85c-10.18-1.62-21.02-9.7-24.21-18.04Z"/>
        <path class="l" d="M624.05,600.76l-42.95-6.85c-10.38-1.66-21.48-9.94-24.75-18.47l-17.33-45.29c-2.21-5.78-.44-10.57,4.62-12.5,2.4-.92,5.43-1.12,8.79-.58l42.95,6.85c10.38,1.65,21.48,9.94,24.74,18.47l17.33,45.29c2.21,5.78.44,10.57-4.62,12.5h0c-2.4.92-5.43,1.12-8.79.58ZM540.32,529.65l17.33,45.29c3.11,8.12,13.73,16.01,23.67,17.6l42.95,6.85c3.12.5,5.91.32,8.08-.51,4.33-1.66,5.76-5.66,3.82-10.72l-17.33-45.29c-3.11-8.12-13.73-16.01-23.67-17.6l-42.95-6.85c-3.12-.5-5.91-.32-8.08.51-4.33,1.66-5.76,5.66-3.82,10.72Z"/>
      </g>
      <g>
        <path class="g" d="M606.65,695.16h0c-2.83-.42-5.27-2.54-6.73-6.36l-17.33-45.29c-3.19-8.34-.51-21.58,5.98-29.59l27.4-33.77c3.54-4.36,7.47-6.26,10.84-5.74h0s30.12,4.2,30.12,4.2l-20.32,120.71-29.98-4.17Z"/>
        <path class="g" d="M606.56,695.85l-.74-.11v-.04c-2.85-.71-5.15-3.04-6.53-6.64l-17.33-45.29c-3.26-8.53-.53-22.11,6.09-30.27l27.4-33.77c3.33-4.11,7.31-6.31,10.84-6.06v-.02s31.46,4.39,31.46,4.39l-20.44,121.41-.11.66-30.64-4.26ZM627.36,575.19h0s-.63-.08-.63-.08c-3.2-.49-6.99,1.54-10.2,5.49l-27.4,33.77c-6.35,7.82-8.98,20.79-5.88,28.9l17.33,45.29c1.31,3.42,3.5,5.52,6.18,5.91l29.3,4.08,20.09-119.35-28.79-4.02Z"/>
      </g>
      <g>
        <path class="i" d="M681.23,630.29l-17.33-45.29c-3.19-8.34-11.04-8.61-17.54-.6l-27.4,33.77c-6.5,8-9.18,21.25-5.99,29.59l17.33,45.29c3.19,8.34,11.04,8.61,17.54.6l27.4-33.77c6.49-8,9.17-21.25,5.98-29.59Z"/>
        <path class="i" d="M629.66,693.29l-17.33-45.29c-3.26-8.53-.53-22.11,6.1-30.27l27.4-33.77c2.14-2.64,4.54-4.52,6.93-5.43,5.06-1.94,9.58.45,11.79,6.23l17.33,45.29c3.26,8.53.53,22.11-6.09,30.27l-27.4,33.77c-2.14,2.64-4.54,4.52-6.93,5.43-5.06,1.94-9.58-.45-11.79-6.22ZM646.9,584.84l-27.4,33.77c-6.35,7.82-8.98,20.79-5.88,28.9l17.33,45.29c1.93,5.05,5.67,7.08,10,5.43,2.17-.83,4.36-2.56,6.35-5.01l27.4-33.77c6.35-7.82,8.98-20.79,5.87-28.9l-17.33-45.29c-1.93-5.06-5.67-7.08-10-5.43-2.17.83-4.36,2.56-6.35,5.01Z"/>
      </g>
    </g>
    <g>
      <g>
        <path class="q" d="M1001.22,288.42l-188.24-136.59c-.06-.05-.15-.06-.22-.02l-27.47,12.34s-.05.03-.07.06l-16.85,19.51s-.05.08-.05.12l-3.5,33.79s0,.05,0,.08l7.28,28.82s.04.09.08.12l188.19,136.56c.11.08.28.04.33-.09l40.6-94.43c.04-.09,0-.2-.07-.26Z"/>
        <path class="q" d="M960.35,384.34c-.22-.02-.44-.11-.63-.25l-188.53-136.8-.18-.53-7.32-28.98.02-.28,3.54-34.13.3-.39,17-19.68.32-.16,27.44-12.33c.21-.1.44-.13.67-.11s.46.11.65.25l188.23,136.58c.5.36.68,1.03.43,1.59l-40.82,94.95-.7.25c-.09.02-.25.04-.42.02ZM785.92,165.07l-16.55,19.15-3.46,33.36,7.16,28.36,187.04,135.73,39.89-92.78-186.35-135.22-.47-.85h-.02s.31.72.31.72l-.72-.52-26.83,12.05Z"/>
      </g>
      <g>
        <path class="v" d="M993.21,368.59l8.11-79.69c.02-.17-.15-.29-.31-.22l-27.24,12.24s-.06.03-.08.06l-16.85,19.51s-.05.07-.05.12l-3.51,33.79s0,.05,0,.08l7.24,28.64c.03.13.18.2.3.15l32.26-14.49c.07-.03.12-.1.13-.18Z"/>
        <path class="v" d="M960.1,384.22c-.29-.14-.55-.45-.64-.83l-7.29-28.85.02-.28,3.54-34.14.31-.39,16.98-19.65.3-.16,27.86-12.52.75.46c.31.23.52.69.48,1.16l-8.11,79.69c-.05.46-.33.86-.75,1.06l-32.78,14.72-.67-.27ZM974.4,301.84l-16.55,19.15-3.46,33.36,6.94,27.47,30.84-13.85,7.91-77.67-25.68,11.53Z"/>
      </g>
      <g>
        <path class="q" d="M1001.02,288.68l-27.17,12.2c-.07.03-.16.02-.22-.02l-188.07-136.47c-.14-.1-.12-.31.04-.38l27.17-12.2c.07-.03.16-.02.22.02l188.07,136.47c.14.1.11.31-.04.38Z"/>
        <path class="q" d="M973.61,301.99c-.22-.02-.44-.1-.62-.23l-188.64-136.88.02-.88c.04-.38.33-.79.76-.99l27.17-12.21c.21-.1.44-.13.67-.11s.46.11.65.25l188.62,136.87-.02.88c-.04.38-.33.79-.76.99l-27.18,12.21c-.21.09-.45.13-.68.1ZM787.43,164.39l186.43,135.28,25.33-11.38-185.52-134.62-.47-.85h-.02s.31.72.31.72l-.72-.52-25.33,11.37Z"/>
      </g>
      <g>
        <path class="q" d="M973.57,301.11l-16.64,19.27c-.08.09-.2.1-.29.03l-188.12-136.51c-.1-.08-.12-.22-.04-.32l16.64-19.27c.08-.09.2-.1.29-.03l188.12,136.5c.1.08.12.23.04.32Z"/>
        <path class="q" d="M956.63,321.55c-.23-.02-.44-.1-.63-.24l-188.56-136.82-.12-.67c-.03-.3.08-.67.32-.94l16.65-19.27c.28-.32.71-.49,1.14-.45.23.02.45.11.63.24l188.55,136.81.12.69c.03.29-.09.66-.33.94l-16.64,19.26c-.29.33-.7.5-1.13.45ZM769.93,183.58l186.69,135.47,15.49-17.93-186.7-135.47-15.49,17.93Z"/>
      </g>
      <g>
        <path class="q" d="M929.25,343.66l-129.03-93.1s25.76,3.75,65.92,32.73c40.16,28.98,63.1,60.37,63.1,60.37Z"/>
        <path class="q" d="M934.23,348.6l-138.28-99.77,4.44.65c1.06.16,26.48,4.12,66.41,32.92,39.84,28.75,63.12,60.29,63.35,60.61l4.09,5.59ZM805.29,252.86l118.16,85.25c-8.76-10.57-28.92-33-57.95-53.94-29.15-21.03-50.78-28.72-60.21-31.32Z"/>
      </g>
      <g>
        <polygon class="v" points="949.18 357.21 772.45 228.96 776.21 243.83 952.94 372.07 949.18 357.21"/>
        <path class="v" d="M954.75,374.74l-179.51-130.26-4.6-18.18,179.51,130.25,4.59,18.19ZM777.17,243.17l173.96,126.23-2.91-11.54-173.96-126.23,2.91,11.54Z"/>
      </g>
      <g>
        <g>
          <path class="q" d="M869.55,293.84c-.21,2.07.99,4.73,2.67,5.95,1.69,1.22,3.22.52,3.43-1.54s-.99-4.73-2.67-5.95c-1.69-1.22-3.22-.53-3.43,1.54Z"/>
          <path class="q" d="M873.52,301.47c-.64-.06-1.31-.33-1.94-.79-2-1.44-3.37-4.5-3.12-6.95.14-1.39.8-2.44,1.81-2.89,1.01-.45,2.23-.24,3.36.57,2,1.44,3.37,4.49,3.12,6.95-.14,1.39-.8,2.44-1.81,2.89-.44.2-.92.27-1.42.22ZM871.47,292.8c-.12-.01-.22,0-.31.04-.27.12-.46.54-.52,1.11-.17,1.69.85,3.95,2.22,4.95.47.34.91.47,1.18.35.27-.12.46-.54.52-1.11.17-1.69-.85-3.95-2.22-4.95-.32-.23-.62-.36-.87-.39Z"/>
        </g>
        <g>
          <path class="q" d="M860.74,287.54c-.21,2.07.99,4.73,2.67,5.95,1.68,1.22,3.22.53,3.43-1.54s-.99-4.73-2.67-5.95c-1.69-1.22-3.22-.53-3.43,1.54Z"/>
          <path class="q" d="M864.71,295.17c-.64-.06-1.31-.33-1.94-.79-2-1.44-3.37-4.5-3.12-6.95.14-1.39.8-2.44,1.8-2.89,1.01-.45,2.23-.24,3.37.57,2,1.44,3.37,4.5,3.12,6.95-.14,1.39-.8,2.44-1.81,2.89-.44.2-.92.27-1.42.22ZM862.66,286.5c-.12-.01-.22,0-.31.04-.27.12-.46.54-.52,1.11-.17,1.69.84,3.95,2.22,4.95.47.34.91.47,1.18.35.27-.12.46-.54.52-1.11.17-1.69-.85-3.95-2.22-4.95-.32-.23-.62-.36-.87-.39Z"/>
        </g>
        <g>
          <path class="q" d="M851.93,281.24c-.21,2.07.98,4.73,2.67,5.95,1.69,1.22,3.22.53,3.43-1.54s-.98-4.73-2.67-5.95c-1.69-1.22-3.22-.53-3.43,1.54Z"/>
          <path class="q" d="M855.9,288.87c-.64-.07-1.3-.33-1.94-.79-2-1.44-3.37-4.49-3.12-6.95.14-1.39.8-2.44,1.8-2.89,1.01-.45,2.23-.25,3.36.57,2,1.44,3.37,4.5,3.12,6.95-.14,1.39-.8,2.44-1.81,2.89-.44.2-.92.27-1.42.22ZM853.85,280.2c-.12-.01-.22,0-.31.04-.27.12-.46.54-.52,1.11-.17,1.69.84,3.95,2.22,4.95.47.34.91.47,1.18.35.27-.12.46-.54.52-1.11.17-1.69-.84-3.95-2.22-4.95-.32-.23-.62-.36-.87-.39Z"/>
        </g>
      </g>
    </g>
    <g>
      <g>
        <path class="s" d="M116.51,703.8v143.44c0,.22.25.35.43.25l124.22-71.73c.09-.05.14-.15.14-.25v-143.44c0-.22-.24-.36-.43-.25l-124.22,71.72c-.09.05-.14.15-.14.25Z"/>
        <path class="r" d="M116.8,848.94c-.29,0-.59-.08-.85-.23l-.7-.41-.14-1.06v-143.44c0-.61.32-1.17.85-1.48l124.21-71.72c.53-.3,1.18-.3,1.71,0l.7.41.14,1.06v143.44c0,.61-.32,1.18-.85,1.48l-124.21,71.72c-.26.15-.56.23-.85.23ZM117.93,704.45v140.82s121.96-70.42,121.96-70.42v-140.82s-121.96,70.42-121.96,70.42ZM240.46,774.53h0s0,0,0,0ZM117.37,704.77h-.01s0,0,.01,0Z"/>
      </g>
      <g>
        <path class="k" d="M116.37,703.54l-6.55-4.04c-.18-.11-.18-.38,0-.49l124.23-71.73c.09-.05.2-.05.29,0l6.55,4.04c.18.11.18.38,0,.49l-124.23,71.73c-.09.05-.2.05-.29,0Z"/>
        <path class="k" d="M116.52,705.01c-.3,0-.6-.08-.87-.24l-7.26-4.48-.13-1.05c.01-.6.34-1.16.86-1.45l124.22-71.73c.53-.31,1.19-.31,1.73.01l7.25,4.48.12,1.06c0,.6-.34,1.16-.86,1.45l-124.21,71.72c-.26.15-.55.23-.85.23ZM115.96,702.32s0,0-.01,0h.01ZM112.18,699.29l4.35,2.69,122-70.44-4.35-2.69-122,70.44ZM110.55,698.29h.02s-.01,0-.02,0ZM240.15,632.53s.01.01.02.01h-.02ZM234.77,628.51h-.01s0,0,.01,0Z"/>
      </g>
      <g>
        <path class="k" d="M116.09,847.46l-6.53-4.03c-.08-.05-.13-.14-.13-.24v-143.43c0-.22.24-.36.42-.24l6.53,4.03c.08.05.13.14.13.24v143.43c0,.22-.23.36-.42.24Z"/>
        <path class="k" d="M116.24,848.92c-.31,0-.62-.09-.89-.25h0s-7.2-4.45-7.2-4.45l-.14-1.03v-143.43c0-.62.33-1.19.87-1.49.54-.3,1.2-.29,1.72.04l7.2,4.44.13,1.04v143.43c0,.61-.33,1.18-.86,1.48-.26.15-.54.22-.83.22ZM116.82,846.25h0s0,0,0,0ZM110.84,842.56l4.26,2.63v-140.76s-4.27-2.63-4.27-2.63v140.76Z"/>
      </g>
      <g>
        <path class="u" d="M116.57,786.49l104.82-143.39s.05-.06.09-.08l19.4-11.2c.19-.11.43.03.43.25v17.33c0,.06-.02.12-.05.17l-124.22,166.71c-.17.22-.52.1-.52-.17v-29.46c0-.06.02-.12.06-.17Z"/>
        <path class="u" d="M116.81,817.82c-.18,0-.36-.02-.54-.09-.7-.23-1.17-.88-1.17-1.62v-29.94s.33-.52.33-.52h0s104.97-143.6,104.97-143.6l.29-.22,19.47-11.24c.53-.3,1.18-.3,1.71,0l.7.41.14,1.06v17.79s-.33.54-.33.54l-124.23,166.73c-.33.44-.84.68-1.36.68ZM117.93,787.03v25.67s121.95-163.67,121.95-163.67v-14.99s-17.49,10.1-17.49,10.1l-104.46,142.9Z"/>
      </g>
      <g>
        <path class="m" d="M116.58,834.15l124.22-168.04c.16-.22.51-.11.51.17v12.63c0,.06-.02.12-.05.17l-124.22,167.97c-.17.22-.52.11-.52-.17v-12.55c0-.06.02-.12.06-.17Z"/>
        <path class="m" d="M116.8,848.57c-.18,0-.36-.03-.54-.09-.69-.23-1.17-.88-1.17-1.62v-13.01s.34-.55.34-.55l124.22-168.04c.43-.59,1.2-.84,1.9-.61.7.23,1.17.88,1.17,1.62v13.09s-.33.54-.33.54l-124.22,167.97c-.33.45-.84.69-1.37.69ZM117.94,834.69v8.74s121.95-164.9,121.95-164.9v-8.81s-121.95,164.97-121.95,164.97ZM241.94,666.94h0s0,0,0,0Z"/>
      </g>
    </g>
    <polyline class="h" points="635.43 622.87 653.66 627.25 647.1 639.03 661.51 654.06"/>
    <polygon class="l" points="578.34 506.74 585.33 516.77 598.77 511.76 619.16 511.76 578.34 506.74"/>
  </g>
</svg>