<?xml version="1.0" encoding="UTF-8"?>
<svg id="a" data-name="Layer_1" xmlns="http://www.w3.org/2000/svg" viewBox="0 0 174.13 249.73">
  <defs>
    <style>
      .b {
        fill: none;
      }

      .b, .c, .d {
        stroke: #000;
        stroke-miterlimit: 10;
        stroke-width: 2px;
      }

      .c {
        fill: #c7b299;
      }

      .d {
        fill: #736357;
      }
    </style>
  </defs>
  <g>
    <path class="c" d="M87.06,100.55v146.78c0,.15-.16.24-.29.17L2.06,198.59c-.06-.03-.09-.1-.09-.17V51.65c0-.15.16-.24.29-.17l84.71,48.91c.06.03.1.1.1.17Z"/>
    <path class="c" d="M86.96,248.61l-.68-.28L1.58,199.43c-.36-.21-.58-.59-.58-1.01V51.65c0-.42.22-.8.58-1.01l.48-.28.68.28,85.19,49.19.09.73v146.78c0,.42-.22.8-.58,1.01l-.48.28ZM2.93,197.97l83.16,48.01V101L2.93,52.99v144.99Z"/>
  </g>
  <g>
    <path class="c" d="M87.16,100.39l84.71-48.91c.13-.07.13-.26,0-.33L87.16,2.24c-.06-.03-.14-.03-.2,0L2.25,51.14c-.13.07-.13.26,0,.33l84.71,48.91c.06.03.14.03.2,0Z"/>
    <path class="c" d="M87.16,101.5l-.67-.28L1.77,52.32c-.36-.21-.58-.59-.58-1.01v-.56l.58-.44L86.97,1.12l.68.29,85.19,49.18.1.72c0,.42-.22.8-.58,1.01l-85.19,49.19ZM3.9,51.31l83.16,48.01,83.16-48.01L87.06,3.3,3.9,51.31Z"/>
  </g>
  <g>
    <path class="d" d="M87.35,247.5l84.71-48.91c.06-.03.09-.1.09-.17V51.65c0-.15-.16-.24-.29-.17l-84.71,48.91c-.06.03-.1.1-.1.17v146.78c0,.15.16.24.29.17Z"/>
    <path class="d" d="M87.35,248.61l-.68-.28c-.36-.21-.58-.59-.58-1.01V99.99l.59-.45,85.19-49.19.67.28c.36.21.58.59.58,1.01v146.78c0,.41-.22.8-.58,1.01l-84.71,48.91h0l-.48.28ZM88.03,101v144.99l83.16-48.01V52.99l-83.16,48.01Z"/>
  </g>
  <g>
    <path d="M62.7,97.26l-3.74-2.19c-.06-.03-.13-.04-.19,0l-7.94,4.26c-.06.03-.1.1-.1.17l-.08,53.9c0,.07.04.13.1.17l3.74,2.19c.06.04.13.04.19,0l7.72-4.39c.06-.03.1-.1.1-.17l.03-4.33c0-.07-.04-.14-.1-.17l-3.73-2.19c-.06-.03-.1-.09-.1-.17l.22-40.11c0-.07.04-.14.1-.17l3.76-2.14c.06-.03.1-.1.1-.17l.03-4.33c0-.07-.04-.13-.1-.17Z"/>
    <path d="M50.38,98.47l7.94-4.26.67-.26,4.21,2.46.58.45-.03,4.89c0,.41-.23.79-.59,1l-3.37,1.92-.22,39.22,3.35,1.96.58.45-.03,4.89-.1.72-8.2,4.67c-.36.2-.8.2-1.16,0l-3.74-2.19-.57-.45.08-54.45c0-.21.06-.41.16-.59.11-.18.26-.33.46-.44ZM54.59,154.69l6.94-3.95.02-3.44-3.35-1.96-.58-.45.23-40.68c0-.4.23-.79.59-.99l3.37-1.92.02-3.44-2.98-1.74-7.16,3.84-.07,52.99,2.96,1.74Z"/>
  </g>
  <polygon points="75.83 93.96 75.83 241.18 88.03 245.99 88.03 101 75.83 93.96"/>
  <polygon points="3.9 51.31 75.83 101.5 75.83 93.96 3.9 51.31"/>
  <polygon points="27.55 212.19 16.16 183.86 27.55 198.02 39.87 176.88 61.83 230.02 27.55 212.19"/>
  <polyline class="b" points="56.73 33.86 81.93 29.21 63.77 52.99 86.1 65.25"/>
</svg>