<?xml version="1.0" encoding="UTF-8"?>
<svg id="Layer_1" data-name="Layer 1" xmlns="http://www.w3.org/2000/svg" viewBox="0 0 369.37 478.5">
  <path d="M184.68,478.5c-15.51,0-31.01-2.97-45.77-8.9-44.6-17.91-87.17-10.21-115.01-.6-6.94,2.41-14.32.59-19.23-4.74-4.78-5.16-6-12.37-3.18-18.82,39.81-91.24,27.3-219.07,27.17-220.35C8.38,107.91,61.8,48.95,110.18,20.19c45.25-26.92,103.75-26.91,149.01,0,48.39,28.75,101.8,87.72,81.47,205.3-.08.89-12.59,128.72,27.23,219.96,2.81,6.44,1.59,13.66-3.19,18.82-4.92,5.33-12.29,7.15-19.24,4.74-27.84-9.61-70.39-17.3-115,.6-14.75,5.93-30.27,8.9-45.77,8.9ZM82.47,447.39c19.01,0,39.62,3.15,60.7,11.63,26.76,10.77,56.25,10.77,83.01,0,47.87-19.23,93.3-11.06,122.99-.8,3.9,1.37,6.45-.95,7.13-1.69.63-.68,2.57-3.15,1.11-6.5h0c-41.02-94.03-28.61-220.74-28.06-226.08,19.28-111.59-30.69-167.02-75.99-193.94-41.71-24.79-95.62-24.79-137.35,0C70.71,56.93,20.74,112.36,39.96,223.55c.6,5.73,13.01,132.44-28.01,226.47-1.47,3.34.47,5.82,1.1,6.5.67.75,3.23,3.07,7.12,1.69,16.61-5.73,38.16-10.82,62.29-10.82ZM122.41,184.45c-2.85,0-5.64-.55-8.27-1.64-7.69-3.2-12.9-10.6-14.65-20.83-1.59-9.27-.13-20.01,4.12-30.21,4.24-10.2,10.82-18.81,18.53-24.22,8.48-5.98,17.4-7.48,25.1-4.29,7.69,3.2,12.9,10.6,14.65,20.83,1.59,9.27.13,20.01-4.12,30.21-4.24,10.2-10.82,18.81-18.52,24.22-5.58,3.92-11.35,5.93-16.84,5.93ZM138.99,113.04c-4.09,0-8,2.24-10.28,3.85-5.96,4.19-11.13,11.04-14.56,19.27-3.42,8.23-4.63,16.71-3.4,23.9.62,3.6,2.45,9.99,7.78,12.21,5.32,2.23,11.16-.98,14.16-3.09,5.96-4.19,11.13-11.04,14.55-19.27h0c3.42-8.23,4.63-16.71,3.4-23.9-.62-3.6-2.45-9.99-7.78-12.21-1.28-.54-2.58-.76-3.87-.76ZM246.95,184.45c-5.48,0-11.25-2.01-16.83-5.93-7.7-5.42-14.29-14.02-18.53-24.22-4.25-10.2-5.71-20.93-4.12-30.21,1.75-10.23,6.96-17.64,14.65-20.83,7.7-3.19,16.62-1.68,25.1,4.29,7.7,5.42,14.28,14.02,18.53,24.22,4.24,10.2,5.71,20.93,4.12,30.21-1.75,10.23-6.96,17.64-14.66,20.83-2.64,1.09-5.41,1.64-8.27,1.64ZM230.38,113.04c-1.29,0-2.59.22-3.86.76-5.34,2.22-7.17,8.61-7.79,12.21-1.23,7.19-.02,15.67,3.4,23.9,3.43,8.24,8.6,15.08,14.56,19.27,3,2.11,8.85,5.34,14.15,3.09h0c5.33-2.22,7.17-8.61,7.79-12.21,1.23-7.19.02-15.67-3.41-23.9-3.43-8.24-8.59-15.08-14.55-19.27-2.28-1.61-6.2-3.85-10.29-3.85Z"/>
</svg>