<?xml version="1.0" encoding="UTF-8"?>
<svg id="Layer_1" data-name="Layer 1" xmlns="http://www.w3.org/2000/svg" viewBox="0 0 357.95 467.13">
  <defs>
    <style>
      .cls-1 {
        fill: #fff;
      }
    </style>
  </defs>
  <path d="M16.34,457.97c28.27-9.77,72.5-17.98,119,.7,28.09,11.29,59.18,11.29,87.27,0,46.5-18.68,90.73-10.47,119-.7,10.15,3.51,19.49-6.35,15.33-15.88-40.9-93.74-27.62-223.21-27.62-223.21,19.66-113.7-31.02-171.05-78.76-199.43-43.61-25.92-99.57-25.92-143.17,0C59.65,47.82,8.97,105.18,28.63,218.87c0,0,13.28,129.47-27.62,223.21-4.16,9.52,5.17,19.39,15.33,15.88Z"/>
  <g>
    <polygon class="cls-1" points="132.67 149.23 103.11 87.64 114.39 79.71 143.95 141.3 132.67 149.23"/>
    <polygon class="cls-1" points="92.76 127.74 148.3 88.69 154.3 101.2 98.76 140.25 92.76 127.74"/>
  </g>
  <g>
    <polygon class="cls-1" points="266.96 132.59 202.51 109.94 204.88 96.35 269.33 119 266.96 132.59"/>
    <polygon class="cls-1" points="223.55 145.61 235.21 78.73 248.3 83.33 236.64 150.21 223.55 145.61"/>
  </g>
</svg>