<?xml version="1.0" encoding="UTF-8"?>
<svg id="a" data-name="Finalize" xmlns="http://www.w3.org/2000/svg" xmlns:xlink="http://www.w3.org/1999/xlink" viewBox="0 0 1203.92 1685.49">
  <defs>
    <style>
      .h {
        fill: #006837;
      }

      .h, .i, .j, .k, .l, .m, .n, .o, .p, .q, .r, .s, .t, .u, .v, .w, .x, .y, .z, .aa, .ab, .ac, .ad, .ae, .af, .ag, .ah, .ai, .aj {
        stroke: #000;
        stroke-miterlimit: 10;
      }

      .i {
        fill: #603813;
      }

      .j, .x {
        fill: none;
      }

      .k {
        fill: gray;
      }

      .l, .ak {
        fill: #754c24;
      }

      .m {
        fill: #cf9e76;
      }

      .n {
        fill: #ccc;
      }

      .o {
        fill: url(#b);
      }

      .p {
        fill: #f0d0b4;
      }

      .q, .ae {
        fill: #fff;
      }

      .r {
        fill: #42210b;
      }

      .t {
        fill: #c7b299;
      }

      .u {
        fill: #998675;
      }

      .v {
        fill: url(#f);
      }

      .w {
        fill: #c69c6d;
      }

      .x {
        opacity: .51;
      }

      .y {
        fill: url(#g);
      }

      .z {
        fill: #999;
      }

      .aa {
        fill: #b3b3b3;
      }

      .ab {
        fill: url(#e);
      }

      .ac {
        fill: url(#d);
      }

      .ad {
        fill: #c1272d;
      }

      .ae {
        stroke-width: .25px;
      }

      .af {
        fill: #666;
      }

      .ag {
        fill: #4d4d4d;
      }

      .ah {
        fill: #005537;
      }

      .ai {
        fill: #736357;
      }

      .aj {
        fill: url(#c);
      }
    </style>
    <linearGradient id="b" data-name="Gold Dust" x1="424.1" y1="520.31" x2="446.79" y2="520.31" gradientUnits="userSpaceOnUse">
      <stop offset="0" stop-color="#ff7300"/>
      <stop offset=".18" stop-color="#f97c00"/>
      <stop offset=".47" stop-color="#ea9502"/>
      <stop offset=".55" stop-color="#e59e03"/>
      <stop offset=".87" stop-color="#e5c500"/>
      <stop offset=".99" stop-color="#bf6f00"/>
    </linearGradient>
    <linearGradient id="c" data-name="Gold Dust" x1="425.08" y1="552.31" x2="441.9" y2="552.31" xlink:href="#b"/>
    <linearGradient id="d" data-name="Gold Dust" x1="648.98" y1="571.16" x2="668.74" y2="571.16" xlink:href="#b"/>
    <linearGradient id="e" data-name="Gold Dust" x1="649.31" y1="618.8" x2="668.4" y2="618.8" xlink:href="#b"/>
    <linearGradient id="f" data-name="Gold Dust" x1="651.78" y1="665.93" x2="671.54" y2="665.93" xlink:href="#b"/>
    <linearGradient id="g" data-name="Gold Dust" x1="651.74" y1="713.43" x2="671.58" y2="713.43" xlink:href="#b"/>
  </defs>
  <g>
    <path class="m" d="M601.49,173.06l-27.66,6.06c-2.76.82-5.37,2.08-7.73,3.73l-1.66,1.16v28.4l-8.09,13.86v7.5l-.45,5.94c-.4,5.3-.6,10.61-.6,15.93v6.89l-1.57,31.83,3.41,6.92c.87,2.99,3.13,7.35,4.72,10.03l7.52,12.66,5.95,8.66c2.12,3.08,4.6,5.9,7.4,8.38l4.81,4.27c1.84,1.63,3.55,2.46,5.48,3.05,2.52.77,5.16,1.08,7.8,1.08h1.91s5.13,0,5.13,0c4.35,0,8.64-1.02,12.53-2.97l5.53-2.77,4.68-2.44c4.86-2.53,9.32-5.76,13.25-9.58l3.47-3.37,12.33-12.52,5.81-6.97c1.33-1.6,2.35-3.44,2.98-5.43l1.96-6.13,1.51-24,.78-22.96-4.16-27.91-1.06-17.22-.52-16.7-8.61-4.43-.78-3.65-6.78-.31c-3.11-.14-6.23.16-9.26.91l-11.35,2.79-13.65-1.3h0c-4.03.69-7.83,2.34-11.07,4.82l-6.32,4.83-1.87,2.18c-4.42,5.13-8.02,10.91-10.67,17.13h0s-2.61,5.62-2.61,5.62v-5.74c0-5.12.63-10.21,1.87-15.18l.74-2.96,7.07-11.63,7.83-8.46Z"/>
    <g>
      <path class="k" d="M667.12,220.32v-30.36s-8.35-4.17-8.35-4.17l-1.04-3.65-6.26-1.04-5.22-1.04-6.34,2.06c-2.71.88-5.52,1.45-8.36,1.7l-4.78.41-11.16-.62c-1.97-.11-3.95.25-5.75,1.06h0c-3.56,1.59-6.67,4.05-9.04,7.15l-2.56,3.36-2.52,3.24c-3.31,4.26-6.1,8.89-8.33,13.8l-.66,1.45-2.61,6.03-.6-6.99c-.45-5.2.17-10.43,1.81-15.39l1.4-4.23,4.17-8.03c2.25-4.33,5.43-8.11,9.32-11.07l3.08-2.35-16.58,4.43c-6.22,1.42-12.25,3.58-17.95,6.44l-3.93,1.97v29.18l-8.35,10.73v5.48l-.78,10.92c-.17,2.44-.79,4.82-1.83,7.03h0s-1.83-10.41-1.83-10.41l-3.39-8.63-7.83-3.12h0c-1.9,0-3.79-.3-5.6-.9l-5.1-1.68,7.04-13.57-7.04,4.14-7.3,3.68,3.13-3.56c2.95-3.36,5.56-7.01,7.77-10.89l.84-1.47,2.61-4.7-11.22.26h-5.48l2.37-2.08c2.75-2.42,5-5.34,6.63-8.61l1.44-2.87.85-1.89c1.69-3.76,3.92-7.26,6.63-10.37l1.14-1.31-9.91-1.04,4.67-2.73c1.06-.62,2.05-1.34,2.96-2.15l3.59-3.21-.08-.14c-1.79-3.42-4.86-5.99-8.53-7.16h0s-4.96,0-4.96,0l2.76-.8c3.53-1.03,7.19-1.55,10.87-1.55h8.8l.2-.42c1.56-3.28,4.15-5.97,7.36-7.67h0s-12.52-3.13-12.52-3.13l6.07-1.87c.47-.15.93-.33,1.37-.55l2.73-1.37c.86-.43,1.65-1,2.33-1.68h0c1.68-1.68,3.96-2.62,6.34-2.62h2.29s3.91-1.3,3.91-1.3l-8.46-2.07c-2.18-.53-4.27-1.37-6.21-2.49l-7.51-4.32,7.65,1.43c3.22.6,6.53.64,9.76.1l5.25-.87c2.62-.44,5.18-1.2,7.61-2.26l4.72-2.07c2.73-1.2,5.6-2.03,8.55-2.47l5.97-.9,5.74-1.3-1.52-2.09h15.3l7.13-1.83h4.96l9.39,2.87-9.39-6.78h1.03c3.96,0,7.86.95,11.37,2.76l3.26,1.68,9.9,4.43,4.96,3.39,5.81,5.48,2.57,2.5c2.87,2.79,4.85,6.37,5.71,10.28h0s3.65-6.26,3.65-6.26l2.09,5.22,1.04,4.7,2.78,1.05c4.54,1.72,8.7,4.3,12.26,7.59h0c1.1,1.02,2.14,2.1,3.11,3.24l.19.23c1.85,2.18,3.45,4.56,4.76,7.09l1.16,2.25c.52,1,1.08,1.97,1.68,2.92l2.04,3.2c.47.75.92,1.51,1.34,2.28l2.76,5.1,4.17,6-10.43-3.94-6.26-2.59,2.85,2.75c2.89,2.79,4.83,6.43,5.54,10.39l1,5.65-.75,4.98c-.54,3.62-1.51,7.17-2.87,10.57l-1.08,2.71-1.83,7.19-.24.71c-1.22,3.57-3.08,6.89-5.5,9.79h0s-4.43,6.24-4.43,6.24h-4.17l-1.83,2.04-4.96,6.63-4.17,7.04-3.91,2.78-3.13-17.1-.52-8.9h0c-1.69-2.02-2.61-4.57-2.61-7.21Z"/>
      <polyline class="k" points="569.81 130.48 581.71 131.7 589.04 134.05 603.07 140.83 612.52 146.57 622.17 158.31 624.78 165.09"/>
      <polyline class="k" points="549.93 150.67 561.73 147.78 578.86 145 590.94 146.57 603.07 151.78 610.73 155.44 620.86 163 607.82 152.05 594.52 145.52 583.04 143 567.65 143 557.29 143"/>
      <polyline class="k" points="540.78 160.6 561.73 157 581.71 157 597.34 165.09 604.6 169.26"/>
      <path class="k" d="M539.55,169.87l.93-.59c3.27-2.07,7.02-3.27,10.89-3.5l11.44-.66c.44-.03.88-.04,1.32-.04h8.56"/>
      <path class="k" d="M532.43,187l18.13-9.76c1.47-.79,3-1.48,4.58-2.05l21.11-7.7"/>
      <line class="k" x1="537.2" y1="196.74" x2="549.93" y2="193.26"/>
      <path class="k" d="M537.2,209.52l6.08-2.95c2.15-1.05,4.24-2.23,6.24-3.55l12.21-8.02"/>
      <polyline class="k" points="532.43 222.74 551.47 209.52 556.12 205"/>
      <polyline class="k" points="544.27 227.03 552.25 219.09 560.6 208.39"/>
      <path class="k" d="M595.64,174.05l7.68-2.4c1.74-.54,3.54-.82,5.36-.82h0c3.97,0,7.82,1.37,10.9,3.88l3.11,2.54,4.26,4.28,2.01,2.51"/>
      <polyline class="k" points="657.73 182.13 665.28 170.83 672.78 159.35 676.43 149.96 679.52 136.75"/>
      <polyline class="k" points="667.12 203.96 674.34 209.52 679.52 224.54"/>
      <path class="k" d="M665.28,187h2.67c4.53,0,8.99,1.16,12.95,3.37l5.18,2.89,6.46,3.74c2.28,1.32,4.29,3.06,5.92,5.14l3.27,4.17,2.69,4.78"/>
      <path class="k" d="M670.43,170.83l6.48-.49c3.99-.3,8,.21,11.78,1.51l2.35.81,8.61,4.78,6.81,4.7"/>
      <path class="k" d="M676.17,155.96l8.69,3.48,5.34,3.15c2.78,1.64,5.1,3.96,6.74,6.73l2.79,4.72"/>
      <path class="k" d="M579.21,119.44l22.09,4.43,18.95,5.97c4.41,1.39,8.44,3.76,11.8,6.94l2.99,2.84c2.36,2.23,4.28,4.88,5.68,7.81l5.71,12"/>
      <path class="k" d="M602.89,113.26l9.92,2,19.45,7.22c2.48.92,4.81,2.19,6.93,3.78l4.38,3.28c6.2,4.63,10.41,11.44,11.8,19.06l.58,3.19"/>
      <path class="k" d="M647.99,115l3.26,3.49c4.27,4.57,7.51,10.01,9.5,15.93l2.89,8.57,3.47,16.44"/>
      <polyline class="k" points="688.44 222.74 680.6 214.84 674.34 209.52"/>
    </g>
    <path class="z" d="M571.34,293.03l-.62,7.91c-.28,3.59-.15,7.19.4,10.75l.22,1.43,2.72-2.92c.62-.66,1.12-1.42,1.48-2.25h0c.82-1.88,2.33-3.37,4.22-4.16l1.99-.84c2.08-.87,4.31-1.35,6.56-1.42l5.46-.16,5.48-1.04,5.48-2.35,4.17-2.09,1.57-4.17,1.04,2.35,5.48,2.87,2.2.9c2.35.96,4.84,1.52,7.37,1.67l1.65.09c2.43.14,4.82.61,7.12,1.4l.53.18c2.34.81,4.42,2.21,6.04,4.08l.92,1.06,6,6.78v-10.43l-1.01-2.77c-2.05-5.64-5.92-10.45-10.99-13.66h0s-8.61-4.43-8.61-4.43h0c-2.65-1.16-5.67-1.11-8.29.13l-1.36.65-1.27.81c-2.09,1.34-4.54,2-7.01,1.9l-2.67-.11-4.56-1.58c-.47-.16-.92-.36-1.36-.6l-4.09-2.19c-1.96-1.05-4.22-1.37-6.39-.91h0c-.19.04-.38.09-.57.14l-6.42,1.81c-1.09.31-2.11.81-3.02,1.48l-3.58,2.64-6.26,7.04-2.61-1.57h-2.61v-3.39h-2.87l1.04-4.43v-4.17l-1.3-1.83v-4.96l-2.61-1.83-3.39-2.61-1.3-3.91-1.04-3.08-1.83,5.16.47,5.09c.38,4.08.44,8.19.17,12.28l-.65,10.03,1.46,4.97c.76,2.59,1.76,5.11,2.98,7.51l2.43,4.78c2.54,5,5.52,9.77,8.89,14.25l5.36,7.12c2.08,2.76,4.49,5.25,7.17,7.41l1.8,1.45c1.49,1.2,3.09,2.26,4.79,3.16l1.09.58c3.45,1.83,7.24,2.95,11.13,3.28l6.1.53h7.46c4.87,0,9.66-1.16,13.99-3.38l3.06-1.57,5.83-2.98c3.57-1.82,6.81-4.22,9.6-7.09l3.03-3.11c1.43-1.47,2.74-3.05,3.93-4.72l2.63-3.71c1.37-1.94,2.86-3.8,4.45-5.57l1.81-2.02c2.95-3.29,5.27-7.1,6.84-11.24l.89-2.35,3.26-38.35v-1.51l-1.83,5.68-1.44,4.43-5.35,1.3v3.13l-1.57,2.09h-3.39v2.09l1.04,4.96-1.04,2.25h-2.87v4.8l-3.65-3.13v4.43l-3.91,1.83v7.57"/>
    <g>
      <path class="m" d="M602.92,298.75l7.04-1.12h6.22l7.09,1.12,4.7,1.22,7.04,3.69,1.3,1.74c1.53,2.06,2.36,4.56,2.36,7.13h0c0,1.31-.55,2.55-1.5,3.44h0c-1.18,1.08-2.82,1.49-4.37,1.08l-6.39-1.69-7.3-4.7-2.91-3h-11.75l-.17.33c-.89,1.76-2.16,3.29-3.71,4.5l-.19.15c-1.45,1.12-2.84,2.3-4.17,3.55l-.43.41c-.76.71-1.76,1.11-2.81,1.11h-2.58c-.83,0-1.65-.25-2.33-.73l-.57-.4c-1.11-.77-1.77-2.03-1.77-3.37v-1.37c0-1.09.43-2.13,1.2-2.9h0c.24-.24.45-.51.63-.81l.34-.58c1.79-3.02,4.65-5.26,8-6.28h0s7.04-2.53,7.04-2.53"/>
      <path class="m" d="M597.18,304.93l4.04,1.53c2.12.8,4.37,1.21,6.64,1.21h5.77c1.68,0,3.36-.26,4.97-.77l6.23-1.97"/>
    </g>
    <g>
      <path class="q" d="M629.9,237.96l2.48-2.64c.32-.34.7-.61,1.13-.8l3.44-1.55c.73-.33,1.55-.4,2.33-.2l5.56,1.44c.19.05.38.11.56.2l7.16,3.21c.09.04.18.09.27.14l1.33.74c1.76.98,2.35,3.23,1.28,4.94l-1.71,2.75c-.64,1.04-1.78,1.67-3,1.67h-14.72c-.85,0-1.67-.31-2.31-.86l-2.48-2.15c-.29-.25-.54-.55-.74-.89l-1.05-1.8c-.31-.54-.48-1.15-.48-1.78h0c0-.9.34-1.76.95-2.41Z"/>
      <g>
        <path class="j" d="M591.92,214.25c18.07,6.51,36.61,5.59,51.65.59"/>
        <g>
          <line class="j" x1="607.56" y1="240.81" x2="604.88" y2="267.4"/>
          <line class="j" x1="619.91" y1="244.8" x2="619.91" y2="265.67"/>
          <path class="j" d="M597.62,269.84l-1.43,1.19c-.88.73-1.39,1.82-1.39,2.97h0c0,.36.05.71.15,1.06l.95,3.34c.2.72.61,1.36,1.17,1.85l1.8,1.57c.41.36.9.63,1.43.79l4.27,1.28c.1.03.19.06.29.1l3.88,1.51c.45.17.92.26,1.4.26h2.62c.55,0,1.09-.12,1.59-.34l5.57-2.53,4.46-2.16c.94-.45,1.65-1.27,1.98-2.25l.67-2.02c.25-.74.26-1.53.05-2.28l-1.24-4.33"/>
          <ellipse class="s" cx="603.35" cy="281.84" rx="1.79" ry="3.59" transform="translate(100.16 718.04) rotate(-65.96)"/>
          <ellipse class="s" cx="619.06" cy="281.19" rx="3.59" ry="1.79" transform="translate(-60.85 276.59) rotate(-24.04)"/>
          <path class="j" d="M604.88,275.58l2.35.87c1.23.46,2.53.69,3.84.69h0c1.39,0,2.77-.26,4.06-.77l2-.79"/>
        </g>
        <path class="j" d="M559.66,251.74l3.16,3.92c.74.92,1.56,1.76,2.46,2.52l2.05,1.74c1.96,1.66,3.56,3.71,4.69,6.02h0c.98,2,1.59,4.15,1.8,6.37l.71,7.3"/>
        <path class="j" d="M647.42,283l4.21-11.4,1.2-2.47c.91-1.87,2.1-3.59,3.54-5.1l1.67-1.75c.87-.91,1.68-1.9,2.4-2.93l4.06-5.82"/>
        <path class="r" d="M620.61,230.81l2.55.94c1.58.58,3.28.75,4.95.48l1-.16c1.46-.23,2.87-.7,4.18-1.38l2.74-1.42c2.72-1.41,5.57-2.58,8.49-3.49l4.79-1.5,2.13-.9c1.44-.61,2.99-.92,4.56-.92h0c1.08,0,2.14.32,3.04.91l3.31,2.19,3.91,3.12v2.39l-5.48-.78-7.16-.52h-1.44c-3.6,0-7.16.87-10.35,2.55h0c-.41.21-.84.38-1.29.48l-5.93,1.39-3.49,1.04c-2.3.69-4.68,1.03-7.08,1.03h-.04l-3.39-5.46Z"/>
        <g>
          <ellipse class="s" cx="644.48" cy="241.45" rx="8.61" ry="6.4"/>
          <circle class="ae" cx="648.91" cy="239.7" r="2.61"/>
        </g>
        <g>
          <path class="q" d="M569.06,233.91l1.39-2.77c.25-.5.63-.94,1.09-1.26l.64-.45c.95-.66,2.17-.79,3.24-.34l3.18,1.34c.11.04.21.08.32.12l5.9,1.81c.19.06.39.1.58.12l4.44.54c.92.11,1.75.59,2.3,1.34l2.83,3.82c.57.77.79,1.74.6,2.68h0c-.28,1.4-1.41,2.47-2.82,2.67l-3.58.52-8.62,1.26c-.61.09-1.24,0-1.81-.23l-5.08-2.16c-.34-.14-.65-.34-.93-.59l-2.61-2.33c-.59-.53-.98-1.25-1.09-2.03l-.3-2.06c-.1-.68.01-1.38.32-2Z"/>
          <ellipse class="s" cx="582.2" cy="237.98" rx="6.2" ry="8.34" transform="translate(280.06 789.62) rotate(-83.52)"/>
          <circle class="q" cx="581.82" cy="235.4" r="2.61"/>
        </g>
        <path class="r" d="M563.1,223.78l2.77-3.07c.1-.11.22-.21.35-.29l3.89-2.29c.23-.13.49-.21.76-.21h2.71c.18,0,.36.03.52.09l3.85,1.44s.1.04.15.06l4.48,2.25c.08.04.15.09.23.14l5.11,3.83,4.87,3.52c.08.05.16.1.24.14l2.74,1.29,3.37,1.44c.19.08.39.12.59.12h0c2.76,0,5.4-1.17,7.26-3.21l1.82-2.01-2.37,3.74c-1.48,2.34-4.06,3.76-6.83,3.76h-1.29l-6.06-.16c-.1,0-.2-.02-.3-.04l-6.58-1.52c-.06-.01-.11-.03-.17-.05l-8.6-3.08-5.52-2.09c-.08-.03-.16-.05-.25-.07l-6.92-1.31h0c-1.14-.22-1.61-1.6-.83-2.46Z"/>
      </g>
    </g>
    <path class="m" d="M555.24,239.67l-3.22-8.35-.69-3.4c-.32-1.57-1.32-2.82-2.63-3.29l-1.79-.64c-2.36-.85-4.93-.31-6.9,1.45l-1.64,1.47c-.94.84-1.67,1.97-2.12,3.25l-.99,2.84c-.21.62-.37,1.26-.45,1.92l-.43,3.32c-.36,2.82-.15,5.71.61,8.42l.61,2.14,5.14,8.68,5.28,6.19,6.87,7.04,2.33-21.39v-9.65Z"/>
    <path class="m" d="M547.29,252.97l-6-8.28-.97-.69c-2.54-1.81-3.66-5.04-2.79-8.04l.67-2.3,1.87-1.97c.99-1.04,2.46-1.47,3.86-1.14h0c1.28.31,2.33,1.23,2.8,2.46l.41,1.06c.09.24.21.48.35.7l4.23,6.71,3.52,3.2"/>
    <path class="s" d="M552.4,259.87l-.15-.32c-.18-.39-.28-.85-.28-1.32v-4.2c0-.36.06-.72.16-1.04l.7-2.1c.27-.81.82-1.29,1.41-1.23h0c.85.09,1.48,1.26,1.37,2.55l-.55,6.62c-.17,2.04-1.88,2.71-2.67,1.04Z"/>
    <path class="m" d="M673.03,247.85l6.05-6.89,4.59-5.83,1.79-2.84c.89-1.42,2.4-2.27,4.02-2.27h.88l1.24.98c1.58,1.25,2.66,3.07,3.03,5.12l.53,2.94c.34,1.9.33,3.85-.05,5.74l-.82,4.18-.39,3.68c-.2,1.94-.78,3.82-1.7,5.51l-2.53,4.66-3.43,4.99c-.61.88-1.34,1.66-2.17,2.3l-4.99,3.89-6.4,5.59-1.63,3.4,1.56-22.46.41-12.69Z"/>
    <path class="m" d="M676.7,249.88l2.92-5.75c.61-1.2,1.42-2.3,2.38-3.24l1.43-1.39c.88-.86,1.91-1.55,3.03-2.04l2-.88c.72-.32,1.57-.16,2.13.4h0c.78.78,1.22,1.85,1.22,2.96v.6c0,2.21.4,4.4,1.19,6.47l-2.31,12.27"/>
    <path class="m" d="M683.7,239.7l1.6,1.81c1.2,1.36,1.86,3.11,1.86,4.92v2.01"/>
    <path class="s" d="M674.1,255.51l1.38-1.15c.85-.71,1.78.1,2.3,2.01h0c.25.91.38,2,.38,3.11v1.12c0,1.18-.15,2.33-.42,3.27h0c-1.03,3.53-2.55,5.87-4.22,6.51l-1.28.49.28-11.87,1.6-3.48Z"/>
    <path class="af" d="M542.84,260.81l-3.34,6.57-.97,2.38c-1.56,3.82-4.03,7.2-7.2,9.83h0s-6.69,4.32-6.69,4.32l11.89-2.07v.07c.45,2.52.22,5.11-.65,7.52l-.83,2.29,8.53-2.97-1.47,5.39,6.22-2.79.43,1.14c.77,2.04,2.12,3.81,3.89,5.1l1.65,1.2-1.37-28.08-10.08-9.9Z"/>
    <path class="ag" d="M676.64,307.17l-1.8-2.82c-1.34-2.1-2.84-4.1-4.48-5.99l-.29-.33,2.16-17.48,10.9-9.69,3.12-3.04-2.02,4.15c-1.88,3.87-3.18,7.98-3.87,12.23l-.83,5.11-.88,8.7c-.33,3.23-.2,6.48.37,9.67l.5,2.81h0c-1.12-.96-2.09-2.07-2.89-3.31Z"/>
  </g>
  <g>
    <polygon class="ak" points="525.26 401.12 527.27 419.04 554.34 415.39 566.27 414.97 558.94 410.27 538.56 403.75 525.26 401.12"/>
    <path class="i" d="M787.49,405.96l-1.04,15.49c0,.11-.02.21-.03.32l-2.28,15.51c-1.33,9.08-3.76,17.97-7.24,26.47l-15.63,38.2c-.18.44-.28.9-.3,1.37l-1.14,27.26c0,.14-.02.28-.04.42l-3.06,21.05c-.03.18-.06.36-.11.53l-7.24,25.34c-.08.28-.13.57-.15.86l-1.53,24.67c0,.08,0,.17,0,.25v19.78c0,.3.03.59.1.88l3.03,13.65,3.91,21.91,1.77,7.94c.64,2.88,4.04,4.14,6.4,2.37l1.77-1.32c.67-.5,1.47-.78,2.31-.81l17.85-.56c3.92-.12,7.84.28,11.65,1.2l13.97,3.36c.42.1.82.27,1.18.49l11.95,7.36c2.22,1.37,5.13.32,5.97-2.14l3.79-11.09c.03-.1.07-.19.11-.29l5.73-13.38c.05-.12.1-.23.16-.34l6.85-12.62c.32-.59.49-1.26.49-1.94v-15.88c0-.58-.12-1.15-.36-1.67l-4.33-9.59-2.21-4.73c-.35-.74-.46-1.57-.33-2.38l.58-3.45,1.64-10.81c.2-1.32-.26-2.65-1.23-3.57l-6.53-6.14c-1.05-.99-1.5-2.46-1.17-3.87l.94-4.05c.07-.3.1-.61.1-.91v-1.26c0-1.19-.52-2.31-1.42-3.08l-9.7-8.32c-1.49-1.28-1.85-3.44-.86-5.13l4.46-7.63c.77-1.32.74-2.97-.1-4.26l-2.76-4.26c-.38-.58-.9-1.05-1.51-1.38l-1.56-.82c-2.56-1.36-4.16-4.02-4.16-6.92h0c0-.76-.21-1.5-.61-2.14l-2.3-3.71c-.4-.64-.61-1.38-.61-2.14v-18.79c0-.9-.3-1.77-.84-2.48l-2.74-3.56c-.22-.29-.4-.6-.54-.94l-3.71-9.08-6.73-14.58c-.21-.45-.33-.93-.36-1.43l-1.51-22.53-8.73-40.7"/>
    <path class="l" d="M747.71,623.92v70.43l2.61,20.01,3.65,19.51,1.96,25.43v3.91l-1.96,15.26-6.26,27-3.52,12.91-4.7,13.3-1.01,8.8c-.35,3.06.84,6.1,3.18,8.1l1.74,1.49.98.06c3.79.21,7.5-1.12,10.28-3.7h0c2.61-2.42,4.52-5.51,5.52-8.93l2.39-8.16,6.26-13.3-2.74,24.48-1.57,14.26-8.61-1.96-8.22,1.96-9.78-4.3-11.74-7.74-17.22-16.52-4.3-32.87-1.96-30.13v-52.04l-8.12-46.57-4.4-30.52,4.88-29.89,7.74-39.47,8.74-26.5,20.12-37.65,18.43-25.36,14.52-19.57,7.16-9.69,3.82-5.56-7.97-4.38-36.53-14.8-20.97-6.48-18.99-2.52h-3.04l27.65-13.68,17.87-9.04,14.08-6.64-14.94-26.44-6.58-11.91,17.43,8.55c2.72,1.33,5.25,3.02,7.53,5.01l11.04,9.65,9.69,10.98c2.66,3.02,4.94,6.36,6.77,9.94l8.85,17.3-1.05,15.65-3.64,24.79-8.43,23.54-4.17,11.52-9.26,22.72-1.02,24.57-4.33,27.48-6.94,24.25-.94,16.73v26.72Z"/>
    <path class="t" d="M675.87,419.27v-8.74c0-7.99-.57-15.96-1.7-23.87l-2.17-15.13-2.75-20.74-4.79-23.09-5.26-11.49v16.18l-4.06,16.5-4.45,18.84-9.06,17.87-6.12,14.48,6.12-3.52,10.64-11.74,4.58-3.91,4.77,6.26,8.61,18,5.64,14.09Z"/>
    <polyline class="ad" points="656.85 380.92 641.63 396.57 632.66 403.23 645.47 410.27 663.68 391.49"/>
    <polygon class="ad" points="610.19 410.27 593.97 396.57 587.27 391.09 597.3 376.51 605.39 388.75 613.71 400.09 619.79 405.57 610.19 410.27"/>
    <path class="ad" d="M619.79,440.01l-7.79-29.74,6.54-3.55c2.35-1.28,4.91-2.13,7.56-2.52l2-.3c2.96-.44,5.99.1,8.61,1.55l8.77,4.82-3.84,26.22-2.33-.4c-5.83-1.01-11.84-.07-17.09,2.66l-2.43,1.26Z"/>
    <path class="ad" d="M637.42,516.71l-9.71-12.91-11.81-17.22-3.91-7.04,1.3-20.74,6.08-18,3.82-1.99c4.35-2.26,9.32-3.04,14.15-2.2l3.87.67,9.06,36.39,1.58,10.96-14.44,32.09Z"/>
    <polygon class="u" points="600.18 372.31 610.18 380.92 613.71 400.09 597.3 376.51 600.18 372.31"/>
    <path class="l" d="M569.66,584.4l2.74,31.7v131.09l-1.37,56.74-3.72,26.22-22.21,12.93c-2.67,1.55-5.5,2.78-8.46,3.67l-17.64,5.28c-6.17,1.85-12.59,2.78-19.03,2.78h-11.84c-3.26,0-6.23-1.89-7.6-4.84l-4.39-9.42-9.39-20.17,2.35-41.48,6.26-35.22,7.43-34.04,1.96-20.35-1.57-21.13-3.91-34.04-3.91-5.48,2.74-10.96v-21.91l-1.96-16.83-1.09-4.98,3.05-12.72v-21.66l.2-15.41,1.2-11.75-1.12-13.91-2.24-19.54-4.15-15.65-3.18-10.77s4.82,16.83,5.61,18,3.13,17.61,3.13,17.61l1.96,24.26-1.96,19.17v28.57l-3.05,13.8-1.26,5.68-3.13,14.17-3.57,14.29c-.23.9-.63,1.75-1.18,2.5l-4.31,5.83c-.97,1.32-2.37,2.25-3.96,2.65l-2.24.56.78,7.04-1.57,21.13,2.35,12.13-3.91,31.3-7.76,8.69c-1.25,1.4-3.15,2.03-4.99,1.66l-20.11-4.09-24.36,1.77c-1.76.13-3.52.19-5.28.19h-24.34c-1.92,0-3.67-1.11-4.5-2.84l-14.3-30.03-3.71-8.35c-.58-1.3-.2-2.83.92-3.72l3.57-2.81,3.13-2.74,4.02-2.76c1.4-.96,2.24-2.56,2.24-4.26v-3.54l-3.13-7.04-1.76-2.87c-.81-1.32-.68-3.02.33-4.2l.65-.76,2.35-4.3-.39-4.7-1.21-3.15c-.46-1.2-.27-2.56.5-3.59l3.45-4.6,2.35-6.26-2.35-8.61,5.09-7.04v-12.91l3.13-7.04,5.09-5.09-.39-3.91-1.57-4.3v-3.3c0-1.12.54-2.18,1.45-2.84l2.86-2.08,1.57-5.09-1.57-3.52v-4.3l2.03-2.29c.7-.79,1.03-1.83.92-2.87l-.61-5.79h0c-1.29-.86-1.62-2.61-.74-3.89l1.92-2.77.82-1.09c.92-1.22.96-2.89.12-4.17l-.93-1.4v-1.3c0-1.92.76-3.76,2.12-5.12l1.4-1.4,1.96-8.61h-1.96v-3.13l4.7-3.52v-22.3l3.52-17.22,1.96-10.96,6.65-14.09,7.04-8.22,6.65-6.65-.78-3.52-1.57-6.65,8.22-9,11.74-8.61,11.85-9.84c4.32-3.59,9.26-6.36,14.58-8.18l4.09-1.4,2.41-4.2c2.02-3.51,4.85-6.49,8.26-8.67l2.63-1.68c1.3-.83,2.72-1.45,4.2-1.84l4.88-1.28c3.28-.86,6.73-.88,10.02-.04l7.51,1.91,10.07-3.19"/>
    <path class="aa" d="M411.01,400.09l2.48-2.59c2.29-2.39,5.6-3.66,8.87-3.12.9.15,1.79.39,2.66.73l3.76,1.46,6.9,4.19c2.69,1.63,5.13,3.65,7.24,5.99l7.09,7.86c2.79,3.09,6.02,5.75,9.59,7.89l2.29,1.38c1.32.79,2.95.91,4.37.32l11.82-4.93,19.93-5.28c4.43-1.17,8.67-2.97,12.6-5.33l9.06-5.44,6.53-1.92-14.49-3.08-12.51,6.35c-1.82.92-3.7,1.71-5.63,2.37l-15.49,5.27-9.02,4.92c-2.33,1.27-5.21.92-7.17-.87l-10.42-9.53-14.48-11.74-7.31-4.5c-2.29-1.41-4.92-2.15-7.61-2.15h-2.28c-2.09,0-4.18.22-6.23.65l-4.35.92,1.79,10.17Z"/>
    <path class="r" d="M459.71,352.9l4.72-2.01c3.08-1.31,6.39-1.99,9.74-1.99h.44c2.27,0,4.49.68,6.36,1.96l.69.47c1.52,1.03,2.81,2.36,3.81,3.9l3.19,4.94,2.8,3.77,13.22-22.57-8.99-4.73c-1.36-.72-2.8-1.27-4.29-1.65l-1.78-.45c-1.66-.42-3.39-.42-5.04.02l-7.61,2c-1.33.35-2.59.9-3.74,1.64l-2.67,1.71c-3.53,2.26-6.46,5.34-8.55,8.97l-2.3,4.01Z"/>
    <path class="aa" d="M405.27,405.57h6.31c3.32,0,6.6.71,9.63,2.07l7.54,3.41,8.96,4.24c3.89,1.84,7.28,4.58,9.91,7.98l4.85,6.29c1.14,1.47,2.04,3.12,2.66,4.87l4.92,13.77,3.91,19.97v8.05c0,4.04-1.92,7.84-5.17,10.23l-2.26,1.67-6.62,5.25c-3.06,2.43-6.85,3.75-10.76,3.75h-8.44l-21.13-3.13-10.96-3.52-17.22-5.48v-3.13l2.82-2.11c1.15-.86,2.69-1,3.98-.36l4.16,2.08,18.86,5.96c2.29.72,4.64,1.25,7.02,1.58l14.51,1.99c1.24.17,2.5.2,3.75.07l4.71-.46c3.61-.35,7.04-1.78,9.83-4.1l5.11-4.26.57-1.2c2.15-4.52,2.57-9.67,1.18-14.48l-2.14-7.41-5.87-20.35-3.46-6.67c-1.33-2.56-3.21-4.8-5.5-6.55l-7.58-5.8c-1.48-1.13-3.16-1.99-4.95-2.52l-8.13-2.42c-2.42-.72-4.93-1.08-7.45-1.08h-14.59l7.04-8.22Z"/>
    <path class="j" d="M381.05,494.79h6.19c3.69,0,7.36.43,10.95,1.28l9.47,2.24,10.96,3.52,14.09,4.3-4.31,18.01-12.91-3.14-17.22-2.97-12.16-4.18c-2.06-.71-4.03-1.66-5.86-2.84l-2.72-1.75"/>
    <path class="o" d="M424.1,527.55v1.25c0,2.13,1.14,4.1,2.99,5.16l.77.44c1.12.64,2.39.98,3.68.98h2.41c1.69,0,3.29-.74,4.39-2.03l3.33-3.91c1.06-1.24,1.87-2.68,2.39-4.22l2.73-8.06v-2.26c0-2.84-1.44-5.49-3.82-7.04l-4.01-2.61h-1.27c-1.45,0-2.86.51-3.98,1.45h0c-.86.72-1,1.99-.32,2.88l2.05,2.71,1.37,1.07c2.8,2.18,3.58,6.08,1.83,9.17l-.85,1.5-1.64,1.13c-2.25,1.56-4.91,2.39-7.65,2.39h-4.41Z"/>
    <polyline class="j" points="449.92 579.31 461.66 584.4 467.72 587.92 471.32 590.81"/>
    <polyline class="j" points="478.1 560.14 474.97 556.62 467.72 551.53 460.62 548.4"/>
    <polyline class="j" points="456.97 508.88 463.62 518.04 471.32 532.36 478.1 544.09"/>
    <polyline class="j" points="503.53 552.31 499.62 563.27 491.4 573.94 482.01 585.06 477.52 590.81"/>
    <polyline class="j" points="505.1 613.75 496.88 621.57 485.92 628.62 479.27 634.09"/>
    <path class="j" d="M501.58,711.18h-7.9c-3.24,0-6.39-1.1-8.92-3.13h0s7.43-9.78,7.43-9.78l9.39-12.52"/>
    <polyline class="j" points="503.53 721.36 490.53 717.05 481.76 714.36"/>
    <polyline class="j" points="471.32 492.44 474.97 502.62 478.1 518.04"/>
    <polyline class="j" points="479.27 470.53 478.1 488.14 482.19 499.88"/>
    <path class="aa" d="M372.96,528.86c0-1.48,1.34-2.6,2.79-2.33l5.81,1.06,11.74,1.96,14.75,2.33c.08.01.16.03.25.05l9.5,2.55c2.32.62,4.53,1.57,6.59,2.81l6.47,3.91c.52.31.89.81,1.06,1.39l2.4,8.56c.06.21.09.42.09.64v2.99c0,1.05-.69,1.97-1.7,2.27l-6.94,2.06c-.4.12-.82.13-1.23.03l-9.66-2.32c-1.85-.44-3.73-.74-5.63-.89l-7.12-.55c-.14-.01-.27-.03-.41-.07l-10.11-2.59c-3.29-.84-6.66-1.27-10.05-1.27h-9.32c-1.16,0-2.15-.84-2.34-1.98l-.73-4.39c-.25-1.53,1-2.89,2.55-2.75l3.6.32,3.55.19c4.91.26,9.76,1.23,14.39,2.88l5.14,1.82,11.16,3.85c.12.04.25.07.38.1l9.83,1.67c.93.16,1.86-.25,2.38-1.03l2.39-3.64c.39-.6.5-1.34.28-2.02l-1.35-4.29c-.25-.8-.91-1.41-1.73-1.6l-8.86-2.04-6.41-1.83c-3.01-.86-6.13-1.3-9.27-1.3h-6.42c-4.52,0-8.98-.97-13.09-2.84l-2.37-1.08-1.04-.52c-.8-.4-1.31-1.22-1.31-2.12h0Z"/>
    <path class="aj" d="M434.8,551.65l-9.68,8.92s-.04.12.01.15l.49.33c3.5,2.37,7.96,2.84,11.87,1.23l.73-.3c1.03-.42,1.84-1.24,2.25-2.27l.06-.14c1.57-3.94,1.8-8.29.63-12.36l-.05-.19c-.78-2.72-3.09-4.73-5.9-5.11l-3.83-.52c-.07,0-.13.06-.1.13l3.53,10.13"/>
    <path class="aa" d="M371.66,556.23l13.3,3.91,17.61,3.52,10.57,1.57,10.53,2.93c2.28.63,4.24,2.12,5.46,4.15h0c1.53,2.54,2.34,5.45,2.34,8.41v6.75c0,2.16-.73,4.26-2.08,5.95l-.75.94c-.93,1.17-2.11,2.13-3.46,2.8l-.8.4c-3.7,1.85-7.97,2.2-11.93.97l-3.51-1.09c-1.11-.35-2.16-.88-3.09-1.58l-.07-.06c-2.11-1.58-4.57-2.62-7.18-3.04l-9.28-1.46c-2.1-.33-4.11-1.11-5.87-2.3l-.28-.19c-3.6-2.41-8.03-3.25-12.27-2.34l-6.68,1.44-6.04.37c-.16,0-.25-.17-.16-.29l2.68-3.71c2.37-1.69,7.44-1.84,10.35-1.84h5.3l13.3,2.62,10.17,2.47h13.3l4.7-8.22.78-5.37-7.83-2.38-8.67-2.82c-4.78-1.55-9.76-2.4-14.79-2.51l-7.32-.16c-1.65-.04-3.3-.22-4.92-.53l-9.56-1.87,6.13-7.43Z"/>
    <path class="j" d="M397.88,597.7l-14.27-3.65c-1.7-.43-3.44-.65-5.2-.65h-4.93c-1.47,0-2.92.24-4.31.7l-8.47,2.82"/>
    <polyline class="j" points="402.58 613.75 383.4 613.75 369.71 615.31 354.83 621.39"/>
    <polyline class="j" points="415.49 613.75 431.47 615.31 448.36 617.57 455.4 619.62"/>
    <path class="j" d="M402.97,629.4h19.37l8.38-2.75c1.42-.47,1.38-2.5-.06-2.9l-4-1.13c-2.87-.81-5.83-1.22-8.81-1.22h-12.83c-1.37,0-2.73.16-4.05.48l-14.83,3.53h-6.38c-3.25,0-6.43.91-9.18,2.63l-12.22,7.63"/>
    <line class="j" x1="366.18" y1="635.66" x2="381.05" y2="625.39"/>
    <g>
      <path class="w" d="M456.28,660.89l1.84-7.51c.23-.95-.29-1.93-1.21-2.26l-2.08-.74c-1.18-.42-2.41-.67-3.65-.75l-1.54-.1c-1.89-.12-3.75-.47-5.56-1.03l-4.72-1.49-1.07-.43c-1.89-.76-3.88-1.23-5.9-1.41l-10.05-.9-5.58-1.19c-2.22-.47-4.52.32-5.97,2.07l-1.55,1.86-8.52-3.25c-2.51-.96-5.18-1.45-7.87-1.45h-1.65c-4.39,0-8.76.55-13.01,1.63l-11.99,3.06-13.91,3.63c-2.7.71-5.26,1.9-7.53,3.52l-1.46,1.04c-.66.47-.89,1.35-.55,2.08l18.59,39.69c.7,1.5,2.24,2.44,3.89,2.38l51.13-1.75c2.17-.07,4.34.11,6.47.54l16.59,3.37c2.04.42,4.15-.28,5.54-1.84l7.54-8.45,3.79-30.34Z"/>
      <path class="x" d="M420.18,697.49l-1.12-15.9c-.3-4.25-1.18-8.44-2.62-12.45l-3.31-9.22-3.91-12.91"/>
    </g>
    <path class="h" d="M578.39,405.96l6.55,19.17,9.88,27.39,5.48,11.6c2.5,5.29,5.68,10.22,9.46,14.68l9.34,11.02,17.68,24.68h0l-8.03,19.42-10.5-7.43-20.94-18.79-18.91-17.99-7.3-9.44-3.21-65.3,10.51-9Z"/>
    <path class="i" d="M688.11,412.23h0c8.91,0,17.78,1.22,26.36,3.62l6.62,1.85h.03s21.1,7.43,21.1,7.43h.03s30.1,12.91,30.1,12.91c.01,0,.03.01.04.02l3.08,1.71c.23.13.3.42.15.64l-8.32,12.1s-.02.02-.03.03c-.48.56-14.08,16.45-14.47,18.38s-15.35,21.13-15.65,21.52v.02s-4.4,6.53-4.4,6.53c-8.53,12.68-15.77,26.17-21.62,40.28l-1.76,4.23s0,.02-.01.03l-2.8,8.58c-3.87,11.86-6.83,24-8.87,36.31l-3.1,18.69-3.13,19.2c-.09.55-.9.46-.88-.09l2.19-43.65c.15-7.33.3-14.65.45-21.98l-.16-16.61c-.09-9.03.08-18.06.5-27.08l1.03-22.06v-.03s-.01-1.04-.01-1.04c-.1-9.23-.61-18.45-1.53-27.63l-5.37-53.4c-.03-.26.18-.49.44-.49Z"/>
    <path class="j" d="M832.23,663.05l-15.08-15.08c-2.07-2.07-4.35-3.93-6.79-5.55l-1.54-1.02c-7.19-4.77-15.63-7.31-24.25-7.31h0c-5.74,0-11.41,1.12-16.72,3.31l-11.92,4.91"/>
    <path class="j" d="M771.58,619.62l-10.99,5.22c-3.05,1.45-5.64,3.71-7.48,6.54l-2.79,4.28"/>
    <path class="j" d="M773.14,625.39h16.19c5.6,0,11.16.95,16.44,2.81l4.17,1.47c4.63,1.63,8.88,4.2,12.48,7.54l5.5,5.11"/>
    <path class="j" d="M758.66,617.57l18.25-6.81c3.72-1.39,7.65-2.1,11.62-2.1h2.23c6.49,0,12.95.8,19.24,2.4l13.94,3.53c5.45,1.38,10.49,4.04,14.7,7.75l1.8,1.59"/>
    <path class="j" d="M753.97,608.66l7.51-4.38c4.37-2.55,9.05-4.5,13.94-5.79l11.03-2.93"/>
    <path class="j" d="M799.55,585.06h3.53c7.8,0,15.45,2.16,22.09,6.24l14.88,9.14"/>
    <path class="j" d="M789.97,579.31l-12.05,2.9c-7.78,1.87-15.02,5.52-21.15,10.65l-9.06,7.58"/>
    <path class="j" d="M806.4,573.94l18.4,1.92c2.06.21,4.07.8,5.92,1.73l1.5.75"/>
    <path class="j" d="M784.49,573.94l-14.51,3.71c-1.68.43-3.47-.03-4.74-1.22l-.43-.4c-1.21-1.14-1.23-3.05-.04-4.21l5.76-5.61c1.74-1.69,3.59-3.27,5.54-4.72l13.9-10.34"/>
    <line class="j" x1="780.58" y1="564.74" x2="800.53" y2="558.57"/>
    <path class="j" d="M773.14,552.31l4.88-4.27c2.98-2.6,6.43-4.6,10.18-5.87l5.87-1.99"/>
    <polyline class="j" points="797.79 548.4 816.18 540.18 822.84 536.27"/>
    <line class="j" x1="770.21" y1="512.78" x2="800.53" y2="521.2"/>
    <line class="j" x1="752.01" y1="479.92" x2="758.66" y2="502.62"/>
    <line class="j" x1="758.66" y1="475.23" x2="762.58" y2="498.79"/>
    <path class="j" d="M789.97,494.79l-4.58-.79c-5.72-.98-11.55.87-15.67,4.96l-8.77,8.73"/>
    <line class="j" x1="800.53" y1="513.57" x2="812.66" y2="516.99"/>
    <path class="n" d="M731.1,390.7h0c.41,2.98,2.09,5.65,4.6,7.31l12,7.95,12.91,6.26,4.32,1.78c1.47.6,3.13.46,4.47-.39h0c1.37-.87,2.27-2.33,2.43-3.94l.58-5.81c.48-4.76-.37-9.57-2.45-13.88l-4.72-9.78c-1.76-3.65-4.26-6.9-7.34-9.54l-4.16-3.56c-2.45-2.1-4.69-4.44-6.66-7l-6.63-8.58,6.63,8.58,6.66,7,8.02,7.55,6.08,10.92,3.85,9.12.55,10.87-.41,4.09-2.43,3.94-4.47.39-4.32-1.78-9-4.36-10.87-6.51-8.13-6.5-1.51-4.15-5.7,2.69,5.79,6.61c1.87,2.14,3.98,4.06,6.29,5.72l2.26,1.62c2.69,1.94,5.61,3.55,8.68,4.8l6.92,2.81,13.5,6.65h1.67c1.65,0,3.21-.79,4.18-2.13h0c1.04-1.43,1.71-3.09,1.95-4.84l1.2-8.68v-9.82c0-3.61-.47-7.21-1.38-10.7l-.57-2.17-8.43-9.56-10.54-10.58-8.78-7.39-7.68-4.21"/>
    <path class="ah" d="M634.62,551.14l2.74,57.52,2.35,36.39,2.74,43.04v50.87l-16.04,28.57-20.26,23.15c-1.42,1.62-3.67,2.22-5.71,1.52l-9.04-3.12c-5.33-1.84-10.36-4.43-14.94-7.71l-4.04-2.89.45-37.9v-126.84l-3.19-29.35,1.57-33.26,1.62-31.7v-24.29l-1.68-13.69,26.13,26.24,29.11,24.57v1.65l8.22,17.22"/>
    <path class="ah" d="M702.71,767.92l-21.24,18.31c-.84.72-2.08.72-2.91-.01l-7.88-6.9c-4.19-3.67-7.83-7.92-10.79-12.64l-17.44-27.72v-46.76l-2.74-47.16-3.2-54.25-1.89-39.67,18.15-26.75,17.91-20.19,22.4-21.2,1.51,16.88-1.49,48.52v18.58s-1.05,29.97-1.05,29.97l-1.57,35.39,3.06,25,7.83,46.13,1.34,7.71v56.74Z"/>
    <g>
      <circle class="ac" cx="658.86" cy="571.16" r="9.88"/>
      <circle class="ab" cx="658.86" cy="618.8" r="9.54"/>
      <circle class="v" cx="661.66" cy="665.93" r="9.88"/>
      <circle class="y" cx="661.66" cy="713.43" r="9.92"/>
    </g>
    <path class="i" d="M567.05,414.96c-6.45,0-18.25.54-24.61,1.62l-11.9,2.02c-2.61.44-5.2,1.01-7.76,1.7l-13.97,3.77c-4.55,1.23-8.95,2.95-13.13,5.13l-20.71,10.81.38.24c7.28,4.52,13.91,10,19.71,16.29l19.04,20.64,20.03,27.04c2.29,3.1,4.37,6.35,6.2,9.74l12.37,22.84c3.47,6.41,6.3,13.14,8.46,20.1l8.5,27.49,2.96-62.89c.37-7.89.28-15.79-.29-23.67l-2.68-37.48-2.61-45.39"/>
    <path class="t" d="M567.88,414.96h0c-4.44-4.44-7.02-10.39-7.23-16.67l-.87-25.99-2.17-27.2c-.31-3.93-.17-7.87.42-11.77l2.88-18.98,5.36,8.42,9.16,18.61,11.84,15.65,12.91,15.26-12.91,18.78-5.49,9.19c-2.25,3.76-5.09,7.13-8.42,9.99h0s-2.28,1.96-2.28,1.96l-3.2,2.74"/>
    <path class="h" d="M683.8,380.92l-9.25-23.61-8.63-21.78,6.07,36,3.88,28.57,1.46,21.52-9.53-21.52-4.82,43.49c-.91,5.96-2.29,11.83-4.15,17.56l-4.56,14.09h0c-1.33,5.72-3.34,11.26-5.98,16.5l-11.52,22.78h0l-10.37,19.42,8.22,17.22,16.04-24.26,15.26-18,19.49-19.17,9.17-8.02-4.01-45.2-6.77-55.57"/>
    <polygon class="w" points="636.77 397.13 648.08 372.89 652.27 361.06 659.2 332.4 659.2 316.22 648.2 330.21 635.57 340.41 619.79 347.51 605.21 348.35 586.89 343.96 574.7 333.9 566.27 322.79 575.43 341.4 593.97 363.95 610.18 380.92 613.71 400.09 619.79 405.57 632.66 403.23 636.77 397.13"/>
    <path class="t" d="M587.27,391.09l-8.88,14.87,10.66,30.59,11.24,27.58,11.7,17.33.74-14.45.04-.59c.61-9.17,3-18.14,7.02-26.41h0s-7.79-29.74-7.79-29.74l-24.72-19.17Z"/>
    <path class="k" d="M409.23,389.92l2.37-2.79c3.51-4.13,7.46-7.87,11.77-11.17l10.72-8.19,9.19-6.92c2.85-2.14,5.97-3.89,9.29-5.18l7.14-2.78,4.68-1.89c1.75-.7,3.57-1.19,5.43-1.45l1.85-.26c1.94-.27,3.91-.08,5.76.56h0c2.79.96,5.32,2.56,7.38,4.68h0c.45.46.85.96,1.22,1.48l5.44,7.92-13.37,23.62,19.1,7.35,14.54,3.31-19.19,8.75c-1.95.89-3.94,1.68-5.97,2.37l-8.48,2.89-7.33,3.86c-1.98,1.04-4.23,1.44-6.44,1.14l-1.37-.19-5.72-5.05-10.92-9.44-13.38-9.78c-1.51-1.1-3.18-1.96-4.96-2.53l-2.06-.66c-2.51-.8-5.17-1.06-7.79-.74l-8.89,1.08Z"/>
    <path class="k" d="M385.19,479.53l.51-.02c1.64-.07,3.28.28,4.75,1.02l1.92.96,7.94,2.51,10.92,3.45,16.76,2.92,8.51.73,8.59-1.27,7.53-4.61,4.09-4.14,1.94-7.48-.76-7-4.61-15.96-5.09-15.04-6-8.91-7.81-6.06-12.47-5.65-14.27-1.17h-9.42l-5.83,11.58-2.53,8.12-1.69,9.07-2.47,12.06-.92,12.56.39,12.35Z"/>
    <path class="aa" d="M377.53,501.84v-.7c0-1.83.65-3.6,1.82-5l1.14-1.36,13.05.42,10.96,2.35,18.19,5.51,7.98,2.44c1.16.36,1.87,1.53,1.65,2.72l-.84,4.54-2.65-1.18c-1.74-.77-3.56-1.35-5.43-1.71l-5.16-1.01-13.11-2.74-3.75-1.38c-3.86-1.42-7.94-2.14-12.06-2.14h-11.78"/>
    <path class="aa" d="M375.8,515.92h0c-1.29-.86-1.62-2.61-.74-3.89l1.92-2.77,5.36,2.94,15.94,5.83,29.66,4.66c.69.11.96.95.47,1.44l-4.3,4.3-14.87-2.74-19.12-4.21c-2.64-.58-5.2-1.46-7.63-2.63l-6.12-2.94"/>
    <polygon class="t" points="664.13 392.1 646.37 410.82 641.7 438.5 651.06 484.39 660.48 455.41 664.13 428.43 666.87 399.45 664.13 392.1"/>
    <path class="i" d="M478.1,387.57l9-15.65,12.91-23.57,11.74-17.52,12.06-15.65,12.6-12.91,7.5-9.83,3.58-1.6,5.97,7.44,5.41,12.29,2.04,3.79-2.07,8.64-1.7,16.2,1.7,15.11v3.8c0,10.5.51,21,1.54,31.45l.53,5.44.8,9.84c.12,1.5.67,2.93,1.58,4.12l4.59,6s0,0,0,0h0c-9.49-5.69-19.95-9.59-30.85-11.5l-3.62-.63-34.96-7.43-20.35-7.83Z"/>
    <path class="i" d="M678.7,290.84l11.87,9.08,5.35,5.06c6.58,6.23,12.34,13.28,17.13,20.97l2.55,4.09,8.09,11.06c1.66,2.28,3.18,4.66,4.55,7.13l6.17,11.16,9,17.11,4.3,6.36-22.3,10.51-18.39,9.83-19.39,9-.44-7.36c-.56-9.39-2.52-18.64-5.83-27.45l-2.65-7.06-6.82-21.45-6.44-16.46-6.25-16.23,5.45-7.94,4.09-7.67.51-3.09,9.45,14.92-.88-14.95.88-6.65Z"/>
    <polygon class="af" points="740.45 351.53 727.11 344.98 747.71 382.88 731.1 390.7 733.54 395.59 747.71 405.96 760.62 412.23 766.75 414.36 770.25 412.23 772.24 405.57 771.69 394.7 765.97 381.7 757.9 370.66 747.71 360.76 740.45 351.53"/>
  </g>
  <path class="ai" d="M481.83,851.94v24.3l2.48,51.3,3.64,40.02-3.06,27.65v25.83l-3.06,27.29-5.88,14.92-9.46,18.56-6.55,22.56-7.28,44.03-4,39.3v33.47l-4.73,49.48v29.84l4.73,21.83,9.07,22.67c1.46,3.64,5.46,5.57,9.21,4.43l21.01-6.36,18.92-12.01,21.47-5.82,4.88-.15c3.77-.12,6.77-3.21,6.77-6.98v-4.51l-4.73-6.55,1.44-3.36c.44-1.04.17-2.24-.67-2.99l-4.77-4.21,5.46-8.37,3.27-38.57v-32.02l7.28-28.74,5.82-38.2,1.82-17.83,15.28-16.01,3.42-9.99c.61-1.79.66-3.72.13-5.53l-2.47-8.49,9.1-10.92,6.19-24.38,2.18-23.65,9.46-26.2,6.19-42.21,1.67-38.2,5.25-37.48,23.32-81.5-20.91,82.59-1.68,31.65,1.68,42.93v29.11l6.33,25.11,1.82,17.83-2.55,17.83-2.18,6.19,4.37,5.46-3.64,12.92-1.09,19.83-.36,10.19.06.05c1.78,1.34,2.79,3.46,2.68,5.69l-.2,4.45-2.18,36.38.73,22.92-3.78,15.28v19.65l-3.13,15.28-1.09,25.83-.36,17.46,1.46,12.01,5.82,6.91-1.71,4.64c-.56,1.51.1,3.19,1.53,3.92l5.28,2.72.62,2.83c.67,3.08,3.67,5.07,6.77,4.49l11.9-2.23,28.38-6.19,27.65-3.27,13.17-2.73c3.3-.68,5.31-4.03,4.37-7.27l-1.53-5.28-9.82-22.19,1.46-9.1,6.19-9.82-1.09-17.46,1.82-40.75,1.46-25.83-1.46-14.19,3.36-6.45c.89-1.71,1.16-3.67.77-5.56l-1.95-9.45-3.27-11.64,5.82-15.28v-11.28l4.73-19.65,9.1-17.83v-44.39l7.89-27.29,5.58-30.56,6.91-24.38v-40.75h0c-3.54-2.59-6.1-6.3-7.28-10.52l-.24-.87c-.31-1.1-.18-2.27.36-3.27h0c1.08-2.01,3-3.43,5.23-3.87l1.93-.39h0c-1.68-3.77-4.53-6.89-8.12-8.9l-11.71-6.55c-2.84-1.59-5.46-3.53-7.81-5.78l-13.68-13.13-4.3-32.87-1.25-19.32-.7-6.12-21.24,18.31-5.79-3.97c-4.64-3.18-8.71-7.12-12.02-11.67l-9.5-13.02-11.71-18.61-7.83,13.93-9.86,16.5-14.23,16.25-6.86,6.6-4.85-1.37c-6.92-1.95-13.55-4.79-19.74-8.44l-6.68-3.95v14l-2.74,24.08-2.35,13.57-13.29,7.74-24.14,10.88-10,2.74c-5.53,1.51-11.21,2.43-16.94,2.74l-3.45.19c-4.54.25-9.09-.22-13.48-1.38l-4.18-1.1Z"/>
  <path class="j" d="M463.98,1331.93h14.81c5.71,0,11.37-.96,16.76-2.84l18.28-6.39c1.24-.43,2.43.77,1.98,2l-.75,2.07"/>
  <path class="j" d="M472.88,1318.81l-5.14,1.62c-1.63.52-2.06,2.63-.75,3.73l3.08,2.61h32.1"/>
  <polyline class="j" points="490.45 1283.67 473.35 1289.76 453.2 1295.38 443.93 1297.72"/>
  <polyline class="j" points="506.62 1290.69 522.08 1286.48 525.36 1283.67"/>
  <path class="j" d="M531.92,1287.18l-4.84,7.78c-.86,1.38-.16,3.21,1.41,3.65l3.43.98"/>
  <path class="j" d="M445.87,1250.32l18.1,8.98,21.09,5.62h15.46l14.9-5.8c1.09-.42,2.05.85,1.34,1.78l-1.21,1.58c-2.16,2.82-5.08,4.96-8.42,6.17l-10.35,3.76h-6.33"/>
  <path class="j" d="M535.26,1307.03h-12.17c-2.51,0-4.98-.6-7.21-1.75l-7.39-3.81"/>
  <path class="j" d="M484.6,1111.22l8.87-1.4c5.91-.93,11.93-.77,17.78.48l4.28.92,19.68,6.09,17.81,2.81h13.94"/>
  <polyline class="j" points="500.53 1114.27 523.02 1120.13 540.36 1122.94 552.07 1127.16 557.16 1130.39"/>
  <line class="j" x1="523.49" y1="1125.75" x2="544.69" y2="1124.5"/>
  <path class="j" d="M528.84,1098.1h14.03c5.13,0,10.18-1.19,14.77-3.49l1.04-.52c3.9-1.95,8.37-2.44,12.6-1.37h0"/>
  <path class="j" d="M528.84,1087.33h15.61c.15,0,.31-.03.45-.1l12.11-5.46c.1-.04.2-.07.31-.09l13.89-1.84s.1,0,.14,0h0c1.26,0,1.52-1.78.31-2.14l-17.65-5.3c-.14-.04-.28-.05-.42-.04l-13.26,1.26c-2.87.27-5.03-2.57-4-5.27h0c.16-.42.57-.7,1.02-.7h27.67c.11,0,.22.02.32.05l17.25,5.35"/>
  <polyline class="j" points="553.81 1058.27 572.4 1050.78 587.69 1045.19"/>
  <polyline class="j" points="685.15 1026.41 697.8 1045.19 710.46 1058.27 720.11 1067.65"/>
  <path class="j" d="M680.47,1070.46l15.79,16.94c2.23,2.4,5.12,4.09,8.31,4.86l9.64,2.33"/>
  <line class="j" x1="688.11" y1="1087.33" x2="711.39" y2="1098.1"/>
  <path class="j" d="M617.23,1091.07l13.98-6.08c3.76-1.63,7.17-3.95,10.08-6.84l7.2-7.15c.92-.92.03-2.47-1.22-2.13l-14.6,3.92"/>
  <path class="j" d="M626.58,1108.41h19.08c3.94,0,7.68,1.75,10.2,4.78l3.05,3.66"/>
  <path class="j" d="M616.76,1099.64l12.37-3.51c3.58-1.02,7.33-1.26,11.01-.73l11.74,1.71,14.06,5.68"/>
  <polyline class="j" points="656.1 1233.99 672.03 1245.71 691.71 1258.83 704.9 1265.51"/>
  <polyline class="j" points="634.56 1276.64 620.02 1255.08 610.19 1238.7 616.76 1261.37 634.56 1290.69"/>
  <line class="j" x1="610.57" y1="1284.83" x2="622.37" y2="1287.18"/>
  <g>
    <g>
      <path class="i" d="M455.28,1438.52l1.45,16.21c.34,3.76,2.81,7,6.35,8.31l16.91,6.25h2.05l3.69-9.99,12.23,7.99,3.94,2.68c8.24,5.61,17.57,9.43,27.38,11.23l14.98,2.74c1.94.35,3.88.63,5.84.82l16.46,1.63c8.57.85,17.23.14,25.55-2.09l2.97-.79c7.47-2,14.57-5.22,21-9.53h0c2.88-1.93,4.6-5.16,4.6-8.62h0c0-3.07-1.36-5.99-3.72-7.96l-9.27-7.77c-.87-.73-1.86-1.32-2.93-1.73l-11.85-4.57-16.57-9.99-11.55-11.85c-2.68-2.75-5.04-5.78-7.05-9.05l-4.84-7.87c-1.15-1.86-2.41-3.65-3.78-5.35l-.77-.95c-6.74-8.37-10.72-18.63-11.39-29.36l-.48-7.63c-.06-.96-.15-1.92-.26-2.88l-1.41-11.86c-.81-6.79-.26-13.67,1.59-20.24l1.58-5.62-1.38-.59c-1.71-.74-3.62-.88-5.43-.41l-19.38,5.05-18.71,8.56-15.84,7.89-17.46,4.67h0c-2.77,2.21-4.1,5.77-3.45,9.26l.95,5.12,5.2,16.72c.34,1.1.52,2.24.52,3.39v15.25c0,3.31-.39,6.61-1.15,9.83l-4.17,17.52-2.4,15.58Z"/>
      <path class="r" d="M455.46,1438.52l30.46,20.78v13.98l-24.44-10.63c-2.48-1.08-4.17-3.43-4.42-6.12l-1.61-18Z"/>
      <path class="j" d="M535.94,1354.55l-10.74,4.75c-2.57,1.14-5.22,2.06-7.94,2.77l-12.79,3.33h-4.67"/>
      <path class="j" d="M537.98,1382.57l-5.71,1.63c-4.63,1.32-9.42,1.98-14.23,1.98h-5.06"/>
      <path class="j" d="M544.89,1393.74l-9.52,2.93c-4.95,1.52-10.1,2.3-15.28,2.3h-4.7"/>
      <path class="j" d="M555.94,1409.23l-7.34,2.21c-2.47.74-4.99,1.3-7.54,1.67l-15.57,2.24"/>
      <polygon class="s" points="485.92 1473.28 496.37 1466.29 485.92 1459.3 485.92 1473.28"/>
    </g>
    <g>
      <path class="i" d="M621.4,1312.26l2.4,27.17,2.34,8.94c1.33,5.1,1.03,10.48-.88,15.4l-3.65,9.4c-1.81,4.65-2.96,9.54-3.42,14.51l-.99,10.62-1.8,10.26-1.57,10.11c-.49,3.17,1.34,6.23,4.36,7.3l15.19,5.35,19.23,4,19.53,2.53v-10.92l14.28,6.97c5.36,2.62,11.13,4.29,17.05,4.96l25.41,2.86,13.96,3.61c6.12,1.58,12.41,2.38,18.72,2.38h15.26l21-1.67c2.69-.21,5.2-1.42,7.04-3.39l4.57-4.89c2.58-2.76,3.53-6.66,2.51-10.3h0c-.74-2.65-2.47-4.92-4.83-6.35l-9.03-5.44c-1.11-.67-2.32-1.13-3.59-1.36l-14.46-2.7-21.18-9.23-19.58-14.21-13.98-19.58-7.59-19.53,4.39-15.63,11.19-27.08h0c1.98-3.06,1.08-7.15-2-9.09l-.64-.4c-4.27-2.7-9.26-4.03-14.3-3.82l-6.6.28-21.22,5.24-18.93,2.24-20.21,5.56-18.3,2.26-9.67,3.65Z"/>
      <path class="r" d="M613.78,1419.15l2.23-14.02,15.08,7.37c6.05,2.96,12.31,5.45,18.74,7.46l22.31,6.97v10.92l-33.84-5.5-20.51-6.66c-2.76-.9-4.46-3.67-4.01-6.54Z"/>
      <polygon class="s" points="672.14 1437.85 683.6 1432.53 672.14 1426.93 672.14 1437.85"/>
      <path class="r" d="M652.62,1305.47l9.79,10.35c6.44,6.8,11.59,14.72,15.2,23.37l4.13,9.89v2.75l3.6-25.71,2.08-13.45c.73-4.74,2.45-9.27,5.04-13.3l.87-1.36-40.7,7.48Z"/>
      <polyline class="j" points="690.12 1344.23 706.9 1349.07 717.69 1349.07"/>
      <path class="j" d="M690.12,1359.31l16.85,4.4c2.61.68,5.3,1.03,7.99,1.03h8.82"/>
      <path class="j" d="M698.11,1367.4l13.56,1.95c3.98.57,8.04.44,11.97-.4l1.64-.35"/>
      <path class="j" d="M711.7,1381.9h9.07c1.99,0,3.98-.32,5.87-.95l6.04-2"/>
      <path class="j" d="M727.68,1393.08h3.15c3.49,0,6.71-1.87,8.44-4.9h0"/>
    </g>
  </g>
  <path class="m" d="M365.23,699.35l6.36,18.51,4.64,31.03,2.65,21.54,2.18,26.84-2.51,22.2-2.06,22.88c-.39,4.29.62,8.59,2.88,12.27l5.47,8.92,2.65,2.98,6.47,18.41c.71,2.02,2.1,3.74,3.94,4.86l11.33,6.89h2.45l1.81,1.29c1.84,1.32,4.05,2.02,6.31,2.02h25.68l5.3-2.65,12.59-3.64,8.28-4.97,2.78-1.44c3.38-1.76,5.51-5.26,5.51-9.07h0c0-.91-.32-1.8-.91-2.5h0c-1.53-1.83-3.79-2.89-6.17-2.89h-4.85s-7.62.33-7.62.33l-13.25-14.25-6.96-11.6-.33-16.9-2.49-12.04-2.48-4.53,9.06,16.57,4.7,10.13,9,14.26,4.3,5.38c1.56,1.95,3.81,3.23,6.29,3.57h0c2.24.31,4.53-.01,6.6-.93h0c3.21-1.41,5.56-4.28,6.31-7.71h0c.45-2.05.19-4.19-.74-6.07l-5.31-10.76-7.68-16.49-6.76-13.57c-1.63-3.27-3.98-6.13-6.88-8.37l-7.64-5.89-7.29-7.19-4.59-13.05c-.69-1.96-1.12-4.01-1.27-6.08l-.17-2.37c-.7-9.72.47-19.48,3.46-28.76l4.23-13.16.96-11.7c.24-2.95-.24-5.92-1.41-8.65l-2.1-1.62-18.33-3.89-54.4,1.86Z"/>
  <polyline class="j" points="389.48 840.53 386.5 850.62 393.79 854.79"/>
  <polyline class="j" points="402.58 840.53 400.38 847.66 405.05 851.61"/>
  <polyline class="j" points="418.97 840.53 416.98 847.66 423.53 853.27"/>
  <path class="j" d="M387.49,866.52l6.63,4.35c2.59,1.7,4.62,4.13,5.82,6.98l2.5,5.92c.18.42.38.84.59,1.25l6.19,11.65"/>
  <path class="j" d="M405.05,862.21l18.46,25.18c2.19,2.98,5.44,5,9.08,5.65l20.47,3.63"/>
  <path class="j" d="M423.53,859.89l12.34,21.7,1.99,2.05c2.16,2.23,4.92,3.8,7.95,4.52l19.18,4.56"/>
  <polyline class="p" points="473.64 856.91 474.11 839.63 455.98 848.77 473.64 856.91"/>
  <path class="m" d="M758.66,670.61l2.28,13.2,1.56,22.55,2.03,11.91c1.31,7.65,1.96,15.4,1.96,23.17v10.31l-4.79,6.11c-2.02,2.58-3.72,5.4-5.05,8.39l-.64,1.45c-1.36,3.06-2.29,6.28-2.78,9.59l-1.75,11.88-3.78,16.31-5.82,19.43-2.68,10.26c-.91,3.46-.58,7.13.92,10.38l.17.38c.72,1.56,2.13,2.71,3.8,3.1h0c3.89.91,7.97-.17,10.9-2.89h0c2.41-2.23,4.21-5.03,5.26-8.14l6.25-18.6,6.64-18.27,6.78,4.57,5.56,2.93c2.9,1.53,4.72,4.54,4.72,7.82v8.37l-5.42,12.56-6.57,11.13-8.28,6.26h-5.39l-5.96-1.36c-1.74-.4-3.55-.39-5.29.03l-1.11.26c-2.32.55-3.57,3.08-2.6,5.26l.72,1.61-6.31,2.67h0c-1.09,2.02-1.35,4.39-.73,6.6l.67,2.4c.57,2.02,2.12,3.62,4.12,4.25h0c1.48.46,6.33.27,7.88.11l6.58-.69,1.44.91c1.08.69,2.41.87,3.64.5l5.56-1.7,11.91-2.57,5.14-.29,7.01-2,1.54.41c3.14.84,6.48.56,9.44-.79l3.49-1.59c3.29-1.5,6.02-4.01,7.8-7.15l5.82-10.29,9.71-21.12,1.43-17.13-2.28-17.41-6.23-23.98-1.33-11.66c-.28-2.48-1.03-4.89-2.19-7.1l-6.52-12.36.57-22.27,2-21.41,3.14-17-9.18-5.66-20.34-6.06h-20.93l-14.48,2.38Z"/>
  <polyline class="j" points="779.92 792.48 775.63 797.14 773.14 801.14"/>
  <polyline class="p" points="741.38 842.75 753.08 844.53 750.29 829.69 741.38 842.75"/>
  <polyline class="j" points="747.71 861.11 758.79 861.11 769.35 856.24 774.24 851.53"/>
  <polyline class="j" points="760.97 875.41 773.14 867.65 789.91 858.23 799.33 842.75 806.75 827.4"/>
  <polyline class="j" points="785.05 873.08 800.53 865.09 807.32 850.24 816.74 835.68"/>
  <polyline class="m" points="819.8 861.11 831.02 849.96 832.23 837.11"/>
  <polyline class="j" points="809.61 796.81 818.45 809.99 812.17 818.55"/>
  <polyline class="j" points="823.02 801.14 827.92 809.7 825.47 816.27"/>
  <polyline class="j" points="832.23 801.14 838.15 808.71 833.58 818.55"/>
</svg>