<?xml version="1.0" encoding="UTF-8"?>
<svg id="a" data-name="Layer_1" xmlns="http://www.w3.org/2000/svg" viewBox="0 0 601.25 247.91">
  <defs>
    <style>
      .b {
        fill: #754c24;
      }

      .b, .c, .d, .e {
        stroke: #000;
        stroke-miterlimit: 10;
        stroke-width: 2px;
      }

      .c {
        fill: #42210b;
      }

      .e {
        fill: #b3b3b3;
      }
    </style>
  </defs>
  <g>
    <g>
      <polygon class="b" points="2.05 155.75 125.8 226.92 213.65 179.96 89.01 108.28 2.05 155.75"/>
      <polygon class="c" points="2.05 155.75 2.05 167.6 126.55 238.98 125.8 226.92 2.05 155.75"/>
      <polygon class="c" points="126.55 238.98 213.65 193.74 213.65 179.96 125.8 226.92 126.55 238.98"/>
    </g>
    <path class="e" d="M144.08,209.69l-.89-8.53c-.5-4.76,1.62-9.42,5.54-12.17h0c2.57-1.8,5.44-3.13,8.48-3.93l2.38-.62c5.67-1.48,11.7-.36,16.47,3.04l2.97,2.12-9.2,4.87-7.86-3.09h0s0,0,0,0c-5.37.56-9.99,4.05-12.01,9.06l-.31.78,1.22,4.16-6.79,4.29Z"/>
  </g>
  <g>
    <polygon class="c" points="447.81 43.02 387.46 160.67 465.74 120.81 526.51 2.32 447.81 43.02"/>
    <polygon class="c" points="387.46 162.89 387.46 174.74 511.97 246.12 511.22 234.06 387.46 162.89"/>
    <polygon class="c" points="511.97 246.12 599.06 200.88 599.06 187.1 511.22 234.06 511.97 246.12"/>
    <polygon class="d" points="465.74 120.81 599.06 187.1 511.22 234.06 387.46 162.89 465.74 120.81"/>
  </g>
</svg>